<?xml version="1.0" encoding="UTF-8"?>
<svg id="Layer_2" data-name="Layer 2" xmlns="http://www.w3.org/2000/svg" xmlns:xlink="http://www.w3.org/1999/xlink" viewBox="0 0 365.94 367.87">
  <defs>
    <style>
      .cls-1, .cls-2, .cls-3, .cls-4, .cls-5, .cls-6, .cls-7, .cls-8 {
        fill: #fff;
      }

      .cls-1, .cls-9, .cls-10, .cls-11, .cls-12, .cls-13, .cls-14, .cls-15, .cls-16, .cls-6 {
        stroke: #383532;
      }

      .cls-1, .cls-10, .cls-13, .cls-14, .cls-15, .cls-16 {
        stroke-linecap: round;
        stroke-linejoin: round;
      }

      .cls-17, .cls-18, .cls-16 {
        fill: #ffa6ec;
      }

      .cls-18, .cls-19, .cls-3, .cls-20, .cls-4, .cls-21, .cls-5, .cls-22, .cls-7, .cls-8 {
        stroke-width: 0px;
      }

      .cls-23 {
        stroke: #fff;
      }

      .cls-23, .cls-9, .cls-11, .cls-12, .cls-24, .cls-13, .cls-15 {
        fill: none;
      }

      .cls-23, .cls-9, .cls-11, .cls-12, .cls-24, .cls-6 {
        stroke-miterlimit: 10;
      }

      .cls-25 {
        clip-path: url(#clippath-2);
      }

      .cls-3 {
        opacity: .5;
      }

      .cls-9, .cls-15, .cls-6 {
        stroke-width: .5px;
      }

      .cls-10, .cls-26, .cls-22 {
        fill: #383532;
      }

      .cls-20, .cls-7 {
        opacity: .2;
      }

      .cls-27 {
        clip-path: url(#clippath-1);
      }

      .cls-28 {
        clip-path: url(#clippath-4);
      }

      .cls-11 {
        stroke-width: 2px;
      }

      .cls-24 {
        stroke: #575757;
      }

      .cls-21 {
        fill: #575757;
      }

      .cls-29 {
        clip-path: url(#clippath);
      }

      .cls-14 {
        fill: #7f7f7f;
      }

      .cls-5 {
        opacity: .7;
      }

      .cls-30 {
        clip-path: url(#clippath-3);
      }

      .cls-31 {
        clip-path: url(#clippath-5);
      }

      .cls-8 {
        opacity: .44;
      }
    </style>
    <clipPath id="clippath">
      <rect class="cls-16" x="227.06" y="249.9" width="65.66" height="16.28" rx="4.97" ry="4.97"/>
    </clipPath>
    <clipPath id="clippath-1">
      <path class="cls-1" d="m205.82,184.42s-43.01,11.86-49.91,10.97c-6.9-.88-9.03-3.89-10.62-3.89s-6.02,2.12-7.96,1.95c-1.95-.18-4.25-.71-4.25.53s1.77,3.19,2.83,3.19,5.31-.18,5.31-.18c0,0-8.32,2.48-8.67,4.07-.35,1.59.71,3.01,2.3,3.36,1.59.35,2.3,1.06,2.3,1.06,0,0,.71,2.65,1.77,3.89,1.06,1.24,4.25,1.77,7.79,1.06,3.54-.71,9.73-3.89,11.15-4.78s44.42-4.78,47.61-5.49c3.19-.71,7.08-.71,8.32-2.83,1.24-2.12-7.96-12.92-7.96-12.92Z"/>
    </clipPath>
    <clipPath id="clippath-2">
      <path class="cls-16" d="m242.1,141.06s-3.89,10.62-8.85,17.7c-4.96,7.08-7.08,14.51-3.89,22.48,3.19,7.96,10.09,9.73,10.09,9.73,0,0-2.48,23.36-1.77,29.56.71,6.19,10.26,13.45,24.6,13.98,14.34.53,26.72-4.6,26.72-9.56s-10.09-31.33-10.09-36.81.88-22.65-3.89-38.05c-4.78-15.4-21.59-20.35-32.92-9.03Z"/>
    </clipPath>
    <clipPath id="clippath-3">
      <path class="cls-16" d="m241.04,143.72s-3.36,1.95-7.43,6.19-23.72,33.98-23.72,33.98c0,0,5.84,12.21,7.61,12.57,1.77.35,32.56-26.02,35.4-29.2,2.83-3.19,4.6-9.03,3.72-11.5"/>
    </clipPath>
    <clipPath id="clippath-4">
      <path class="cls-1" d="m212.01,107.61s-.35,5.13.53,6.73c.88,1.59,3.36,3.19,3.36,5.31s-1.77,4.96-1.24,6.55c.53,1.59,3.36,1.77,3.36,1.77,0,0,5.31,6.55,6.9,8.85s2.3,1.42,4.78.71,7.79-5.31,10.8-8.85c3.01-3.54-1.95-14.34-8.49-21.59s-16.28-7.08-18.41-4.96c-2.12,2.12-1.59,5.49-1.59,5.49Z"/>
    </clipPath>
    <clipPath id="clippath-5">
      <path class="cls-10" d="m206.53,99.83l-.03.71-.33,8.67,9.56,1.24,2.12-3.72v4.07s4.07-.53,8.67,1.24c4.6,1.77,10.44,14.34,10.09,19.47-.35,5.13-4.78,6.19-4.25,13.98.53,7.79,12.39,15.57,21.41,10.62s10.44-11.33,14.16-10.09c3.72,1.24,9.38,8.85,12.92-1.95s1.95-17.7-6.37-26.55c-8.32-8.85-14.87-8.14-15.93-15.22-1.06-7.08-3.36-16.64-10.97-21.95s-18.58-5.66-27.96-1.59c-9.38,4.07-13.1,16.46-13.1,21.06Z"/>
    </clipPath>
  </defs>
  <g id="Background_Simple" data-name="Background Simple">
    <g>
      <path class="cls-18" d="m11.59,142.98s-14.98,64.03,26.75,119.81c41.73,55.78,114.49,77.46,172.96,96.58,58.48,19.12,113.25-2.95,133.8-52.1s-20.95-75.62-30.11-139.8c-9.15-64.19-1.85-82.67-44.53-131.54s-130.28-47.71-189.5,2.47C21.74,88.57,11.59,142.98,11.59,142.98Z"/>
      <path class="cls-5" d="m11.59,142.98s-14.98,64.03,26.75,119.81c41.73,55.78,114.49,77.46,172.96,96.58,58.48,19.12,113.25-2.95,133.8-52.1s-20.95-75.62-30.11-139.8c-9.15-64.19-1.85-82.67-44.53-131.54s-130.28-47.71-189.5,2.47C21.74,88.57,11.59,142.98,11.59,142.98Z"/>
    </g>
  </g>
  <g id="Plants">
    <g>
      <g>
        <g>
          <g>
            <path class="cls-18" d="m341.67,191.54s0-4.18-5.85-10.04c-5.85-5.85-9.62-9.2-9.62-9.2,0,0-2.93,9.62,2.51,15.47,5.44,5.85,12.96,11.29,12.96,11.29v-7.53Z"/>
            <path class="cls-18" d="m333.18,217.66s0-4.18-5.85-10.04c-5.85-5.85-9.62-9.2-9.62-9.2,0,0-2.93,9.62,2.51,15.47,5.44,5.85,12.96,11.29,12.96,11.29v-7.53Z"/>
            <path class="cls-18" d="m341.31,198.66s.44-4.16,6.88-9.36,10.54-8.13,10.54-8.13c0,0,1.89,9.87-4.13,15.12-6.02,5.25-14.08,9.86-14.08,9.86l.8-7.49Z"/>
            <path class="cls-18" d="m331.04,229.51s.88-4.09,7.83-8.59c6.95-4.5,11.33-6.98,11.33-6.98,0,0,.85,10.02-5.7,14.6-6.54,4.59-15.04,8.32-15.04,8.32l1.58-7.36Z"/>
            <path class="cls-18" d="m332.97,263.14s0-4.18,5.85-10.04c5.85-5.85,9.62-9.2,9.62-9.2,0,0,2.93,9.62-2.51,15.47-5.44,5.85-12.96,11.29-12.96,11.29v-7.53Z"/>
            <path class="cls-18" d="m332.87,271.34s.59-4.14-4.37-10.77c-4.96-6.63-8.21-10.47-8.21-10.47,0,0-4.26,9.1.28,15.67s11.23,13.02,11.23,13.02l1.07-7.45Z"/>
            <path class="cls-18" d="m327.1,295.67s0-4.18,5.85-10.04c5.85-5.85,9.62-9.2,9.62-9.2,0,0,2.93,9.62-2.51,15.47-5.44,5.85-12.96,11.29-12.96,11.29v-7.53Z"/>
            <path class="cls-18" d="m331.01,317.73s-1.06-4.05,3.12-11.19c4.18-7.15,6.97-11.34,6.97-11.34,0,0,5.27,8.56,1.49,15.6-3.78,7.04-9.68,14.21-9.68,14.21l-1.91-7.28Z"/>
          </g>
          <path class="cls-15" d="m342.2,190.47c-.34,4.47-.85,9.09-1.6,12.98-2.31,11.96-8.1,19.67-10.41,30.47s4.33,24.71,2.55,38.59c-1.78,13.87-7.18,21.59-5.64,30.84,1.54,9.26,9.64,34.33,9.64,34.33"/>
          <line class="cls-15" x1="341.25" y1="201.44" x2="347.56" y2="196.6"/>
          <line class="cls-15" x1="341.54" y1="195.87" x2="338.9" y2="191.17"/>
          <path class="cls-15" d="m330.54,233.43s5.28-3.96,10.71-7.92"/>
          <path class="cls-15" d="m333.18,225.18s-4.4-8.63-9.39-14.35"/>
          <path class="cls-15" d="m333.18,269.08s4.11-8.07,11.3-15.11"/>
          <path class="cls-15" d="m332.15,274.95s-2.64-6.31-5.72-10.86c-3.08-4.55-3.52-5.14-3.52-5.14"/>
          <path class="cls-15" d="m327.1,303.36s2.12-5.37,4.76-9.62c2.64-4.26,6.16-8.07,6.16-8.07"/>
          <path class="cls-15" d="m332.92,325.01s-.62-5.01,1.58-9.26c2.2-4.26,4.7-9.83,5.72-12.03"/>
        </g>
        <g>
          <g>
            <path class="cls-18" d="m303.33,247.41s-.45-2.62,2.58-6.93c3.04-4.31,5.03-6.81,5.03-6.81,0,0,2.88,5.71.11,9.98-2.77,4.26-6.9,8.49-6.9,8.49l-.82-4.72Z"/>
            <path class="cls-18" d="m311.5,262.86s-.45-2.62,2.58-6.93c3.04-4.31,5.03-6.81,5.03-6.81,0,0,2.88,5.71.11,9.98-2.77,4.26-6.9,8.49-6.9,8.49l-.82-4.72Z"/>
            <path class="cls-18" d="m304.34,251.83s-.73-2.56-5.33-5.12c-4.6-2.56-7.49-3.96-7.49-3.96,0,0-.12,6.4,4.23,9.03,4.35,2.64,9.9,4.65,9.9,4.65l-1.31-4.61Z"/>
            <path class="cls-18" d="m314.12,270.06s-.99-2.47-5.84-4.54c-4.85-2.07-7.86-3.15-7.86-3.15,0,0,.56,6.37,5.16,8.54s10.34,3.59,10.34,3.59l-1.79-4.44Z"/>
            <path class="cls-18" d="m316.56,291.36s-.45-2.62-4.76-5.66c-4.31-3.04-7.03-4.73-7.03-4.73,0,0-.79,6.35,3.25,9.43,4.04,3.08,9.36,5.67,9.36,5.67l-.82-4.72Z"/>
            <path class="cls-18" d="m317.52,296.5s-.82-2.53,1.57-7.23c2.39-4.69,4.01-7.46,4.01-7.46,0,0,3.66,5.25,1.52,9.86-2.14,4.61-5.63,9.38-5.63,9.38l-1.48-4.56Z"/>
            <path class="cls-18" d="m324.87,317.65s.3-2.64,4.43-5.92c4.13-3.28,6.75-5.12,6.75-5.12,0,0,1.15,6.29-2.71,9.6-3.86,3.31-9.02,6.2-9.02,6.2l.55-4.76Z"/>
            <path class="cls-18" d="m323.78,311.12s-.45-2.62-4.76-5.66c-4.31-3.04-7.03-4.73-7.03-4.73,0,0-.79,6.35,3.25,9.43,4.04,3.08,9.36,5.67,9.36,5.67l-.82-4.72Z"/>
            <path class="cls-18" d="m323.72,325.38s.22-2.65-3.17-6.68c-3.4-4.03-5.6-6.35-5.6-6.35,0,0-2.37,5.94.76,9.95,3.13,4.01,7.61,7.86,7.61,7.86l.4-4.77Z"/>
          </g>
          <path class="cls-15" d="m302.89,246.79c.7,2.77,1.52,5.61,2.42,7.97,2.75,7.25,7.22,11.46,9.84,17.98,2.62,6.52-.03,15.97,2.59,24.47,2.62,8.51,6.85,12.76,6.88,18.73.04,5.97-2.32,22.57-2.32,22.57"/>
          <line class="cls-15" x1="304.68" y1="253.57" x2="300.19" y2="251.22"/>
          <line class="cls-15" x1="303.89" y1="250.11" x2="305.03" y2="246.88"/>
          <path class="cls-15" d="m314.87,272.47s-3.74-1.91-7.58-3.81"/>
          <path class="cls-15" d="m312.32,267.58s1.82-5.89,4.33-10.02"/>
          <path class="cls-15" d="m317.08,295.11s-3.45-4.61-8.73-8.25"/>
          <path class="cls-15" d="m318.36,298.68s.97-4.24,2.41-7.43c1.44-3.19,1.65-3.6,1.65-3.6"/>
          <path class="cls-15" d="m324.41,320.47s2.97-3.64,4.82-5c1.85-1.36,3.13-2.72,3.13-2.72"/>
          <path class="cls-15" d="m324.61,315.94s-1.91-3.13-4.03-5.52c-2.12-2.38-4.74-4.39-4.74-4.39"/>
          <path class="cls-15" d="m323.32,330.15s-.16-3.21-2-5.64c-1.84-2.43-4.01-5.66-4.89-6.92"/>
        </g>
      </g>
      <g>
        <path class="cls-22" d="m310.33,335.62h38.3v28.7c0,1.68-1.36,3.04-3.04,3.04h-32.22c-1.68,0-3.04-1.36-3.04-3.04v-28.7h0Z"/>
        <path class="cls-22" d="m348.3,340.62h-37.97c-1.66,0-3-1.34-3-3h0c0-1.66,1.34-3,3-3h37.97c1.66,0,3,1.34,3,3h0c0,1.66-1.34,3-3,3Z"/>
      </g>
    </g>
  </g>
  <g id="Clock">
    <g>
      <circle class="cls-22" cx="275.44" cy="39.67" r="34"/>
      <circle class="cls-4" cx="275.44" cy="39.67" r="29.49" transform="translate(5.29 106.45) rotate(-22.08)"/>
      <polyline class="cls-11" points="256.31 45.1 275.44 39.67 275.44 12.92"/>
    </g>
  </g>
  <g id="Graphics">
    <g>
      <polygon class="cls-22" points="110.48 191.68 73.15 191.68 24.28 60.52 61.61 60.52 110.48 191.68"/>
      <polygon class="cls-7" points="110.48 191.68 73.15 191.68 24.28 60.52 61.61 60.52 110.48 191.68"/>
      <path class="cls-22" d="m51.63,92.55h-9.6c-1.2,0-2.53-.97-2.97-2.17l-3.71-9.95c-.45-1.2.16-2.17,1.36-2.17h9.6c1.2,0,2.53.97,2.97,2.17l3.71,9.95c.45,1.2-.16,2.17-1.36,2.17Z"/>
      <polygon class="cls-22" points="64.08 67.15 26.75 67.15 24.28 60.52 61.61 60.52 64.08 67.15"/>
      <g>
        <line class="cls-13" x1="39.5" y1="68.23" x2="40.57" y2="71.11"/>
        <line class="cls-13" x1="40.94" y1="68.23" x2="42.01" y2="71.11"/>
        <line class="cls-13" x1="42.38" y1="68.23" x2="43.45" y2="71.11"/>
        <line class="cls-13" x1="43.82" y1="68.23" x2="44.89" y2="71.11"/>
        <line class="cls-13" x1="45.26" y1="68.23" x2="46.33" y2="71.11"/>
        <line class="cls-13" x1="46.69" y1="68.23" x2="47.77" y2="71.11"/>
        <line class="cls-13" x1="48.13" y1="68.23" x2="49.2" y2="71.11"/>
        <line class="cls-13" x1="49.57" y1="68.23" x2="50.64" y2="71.11"/>
        <line class="cls-13" x1="51.01" y1="68.23" x2="52.08" y2="71.11"/>
        <line class="cls-13" x1="52.45" y1="68.23" x2="53.52" y2="71.11"/>
      </g>
      <g>
        <path class="cls-4" d="m48.53,86.32l-9.04-5.73c-.21-.13-.45-.16-.6-.06-.15.1-.18.3-.09.51l4.14,8.93c.1.22.32.4.56.46.05.01.1.02.14.02.17,0,.3-.08.35-.22l.95-2.94,3.6-.04c.22,0,.36-.14.36-.35,0-.21-.15-.44-.37-.58Z"/>
        <polygon class="cls-22" points="48.34 86.72 39.31 80.99 43.45 89.92 44.47 86.76 48.34 86.72"/>
      </g>
      <polygon class="cls-4" points="65.24 86.72 56.2 80.99 60.34 89.92 61.37 86.76 65.24 86.72"/>
      <polygon class="cls-4" points="69.87 91.8 69.05 89.96 67.99 91.51 69.87 91.8"/>
      <polygon class="cls-4" points="91.71 150.41 90.89 148.57 89.83 150.12 91.71 150.41"/>
      <polygon class="cls-4" points="98.41 168.4 97.59 166.56 96.53 168.11 98.41 168.4"/>
      <polygon class="cls-4" points="105.28 186.85 104.47 185.01 103.41 186.56 105.28 186.85"/>
      <polygon class="cls-4" points="66.79 129.64 65.98 127.8 64.91 129.35 66.79 129.64"/>
      <polygon class="cls-4" points="74.53 150.41 73.72 148.57 72.65 150.12 74.53 150.41"/>
      <polygon class="cls-4" points="81.24 168.4 80.42 166.56 79.36 168.11 81.24 168.4"/>
      <polygon class="cls-4" points="88.11 186.85 87.29 185.01 86.23 186.56 88.11 186.85"/>
      <g>
        <polygon class="cls-4" points="48.52 111.53 50.1 112.55 54.41 103.53 52.84 102.52 48.52 111.53"/>
        <path class="cls-4" d="m50.46,102.71c-2.28-1.79-2.45-2.14-1.89-4.16-1.18,1.62-1.53,1.65-4.04.33,2.28,1.79,2.45,2.14,1.89,4.16,1.18-1.62,1.53-1.65,4.04-.33Z"/>
        <path class="cls-4" d="m58,103.68c-1.41-1.1-1.51-1.32-1.17-2.57-.73,1-.94,1.02-2.5.21,1.41,1.1,1.51,1.32,1.17,2.57.73-1,.94-1.02,2.5-.21Z"/>
        <path class="cls-4" d="m57.57,107.92c-1.01-.79-1.08-.94-.83-1.84-.52.71-.67.73-1.78.15,1.01.79,1.08.94.83,1.84.52-.71.67-.73,1.78-.15Z"/>
      </g>
      <polygon class="cls-4" points="80.24 147.89 81.21 148.57 85.52 139.56 84.55 138.87 80.24 147.89"/>
      <g>
        <polygon class="cls-4" points="76.62 109.21 68.64 104.15 72.3 112.04 73.2 109.25 76.62 109.21"/>
        <path class="cls-4" d="m70.62,109.67c-2.92,0-5.94-1.72-6.73-3.84-.79-2.12.95-3.84,3.87-3.84s5.94,1.72,6.73,3.84c.79,2.12-.95,3.84-3.87,3.84Zm-2.69-7.22c-2.67,0-4.28,1.52-3.58,3.38.69,1.86,3.43,3.38,6.1,3.38s4.28-1.52,3.58-3.38c-.69-1.86-3.43-3.38-6.1-3.38Z"/>
        <path class="cls-4" d="m67.1,108.9c-.72,0-1.52-.59-1.79-1.31-.27-.72.1-1.31.82-1.31s1.52.59,1.79,1.31c.27.72-.1,1.31-.82,1.31Zm-.8-2.15c-.47,0-.7.38-.53.85.17.47.69.85,1.16.85s.7-.38.53-.85c-.17-.47-.69-.85-1.16-.85Z"/>
        <path class="cls-4" d="m67.23,110.27l-.32-.43c.58-.24.89-.59.93-1.04.06-.57-.34-1.12-.34-1.12l.37-.16s.53.73.46,1.48c-.06.57-.43,1-1.11,1.28Z"/>
      </g>
      <g>
        <polygon class="cls-4" points="62.23 123.28 56.67 119.22 55.49 121.1 61.05 125.16 62.23 123.28"/>
        <path class="cls-4" d="m53.32,128.53l.91.66,2.04-3.25c-.23-.24-.32-.56-.18-.77.16-.25.56-.25.9,0,.34.25.49.65.34.9-.13.21-.43.24-.73.1l-2.04,3.25.85.62,5.03-1.41.31-2.97-5.49-4-2.53,1.36.59,5.51Z"/>
      </g>
      <line class="cls-13" x1="48.05" y1="115.8" x2="80.18" y2="115.8"/>
      <g>
        <polygon class="cls-4" points="76 119.22 74.82 121.1 80.38 125.16 81.56 123.28 76 119.22"/>
        <path class="cls-4" d="m72.05,123.01l.59,5.51.91.66,2.04-3.25c-.23-.24-.32-.56-.18-.77.16-.25.56-.25.9,0,.34.25.49.65.34.9-.13.21-.43.24-.73.1l-2.04,3.25.85.62,5.03-1.41.31-2.97-5.49-4-2.53,1.36Z"/>
        <path class="cls-4" d="m70.68,124.63c.05-.39.11-.81.15-1.28.08-.95-.19-1.79-.79-2.51-.95-1.13-2.38-1.5-2.44-1.51-.15-.04-.27.04-.25.18.01.14.15.28.3.32.01,0,1.23.31,2,1.23.48.57.69,1.27.62,2.07-.04.46-.09.88-.14,1.26-.27,2-.43,3.2,2.89,5.19.06.04.12.05.18.05.08,0,.14-.03.17-.1.05-.11-.04-.28-.18-.37-2.88-1.73-2.77-2.55-2.5-4.54Z"/>
      </g>
      <path class="cls-4" d="m56.46,138l.19.52c.07.18.68,1.8,1,2.35l.93-.23c-.15-.25-.45-.98-.69-1.6h3.97l3.32,8.91h-1.49l.39,1.04h4.02l-.39-1.04h-1.49l-3.32-8.91h3.86c.21.56.54,1.44.7,1.88h1.05c-.25-.67-.89-2.4-.89-2.4l-.19-.52h-10.97Z"/>
      <g>
        <path class="cls-8" d="m77.34,162.73c.85,2.29-1.03,4.15-4.2,4.15s-6.44-1.86-7.29-4.15,1.03-4.15,4.2-4.15,6.44,1.86,7.29,4.15Z"/>
        <path class="cls-23" d="m77.34,162.73c.85,2.29-1.03,4.15-4.2,4.15s-6.44-1.86-7.29-4.15,1.03-4.15,4.2-4.15,6.44,1.86,7.29,4.15Z"/>
      </g>
      <g>
        <path class="cls-4" d="m89.17,162.85l3.77-6.85c.16-.28.56-.34.96-.14h0c.48.24.79.75.69,1.13l-2.03,7.57-3.39-1.71Z"/>
        <path class="cls-4" d="m88.54,163.42c1.48-.2,4.38,1.07,4.46,2.99.02.48-.3.81-.67,1.03-1.12.68-2.69.71-4.22.73.37-.26.52-.74.4-1.26-.12-.54-.49-1.08-.69-1.62-.27-.77-.13-1.81.71-1.86"/>
      </g>
      <g>
        <path class="cls-4" d="m80.7,178.46c-.44-.96-.99-1.55-1.37-1.87l-1.14,1.81c.44.37,1.08,1.04,1.58,2.12.44.96.84,1.65,1.13,2.09l1.11-1.78c-.36-.51-.84-1.34-1.32-2.37Z"/>
        <path class="cls-4" d="m79.38,180.55c-.44-.96-.99-1.55-1.37-1.87l-1.14,1.81c.44.37,1.08,1.04,1.58,2.12.44.96.84,1.65,1.13,2.09l1.11-1.78c-.36-.51-.84-1.34-1.32-2.37Z"/>
        <path class="cls-4" d="m81.08,178.42c.44.96.84,1.65,1.13,2.09l1.64-2.62-3.67-2.68-.68,1.08c.44.37,1.08,1.04,1.58,2.12Z"/>
        <path class="cls-4" d="m78.07,182.65c-.44-.96-.99-1.55-1.37-1.87l-.95,1.52.16,3.46c.01.24.33.47.53.38l2.92-1.15c-.36-.51-.83-1.33-1.29-2.34Zm-1.29,2.31l-.09-1.84,1.67,1.22-1.58.62Z"/>
      </g>
      <path class="cls-4" d="m92.48,180.09l-1.25,2,6.46,4.71,1.25-2,.39.29,2.95-4.71-7.25-5.28-2.95,4.71.39.29Zm4.78,5.56l-4.9-3.57.89-1.43,4.9,3.57-.9,1.43Z"/>
      <g>
        <polygon class="cls-4" points="31.49 62.27 31.72 62.91 30.82 64.01 32.54 65.11 32.78 65.75 30.07 64.01 31.49 62.27"/>
        <polygon class="cls-4" points="29.23 62.27 29.46 62.91 28.57 64.01 30.29 65.11 30.52 65.75 27.81 64.01 29.23 62.27"/>
      </g>
    </g>
    <g>
      <polygon class="cls-22" points="182.77 139.18 105.56 139.18 81.96 73.34 159.17 73.34 182.77 139.18"/>
      <polygon class="cls-18" points="177.3 135.59 108.47 135.59 87.44 76.93 156.27 76.93 177.3 135.59"/>
      <polygon class="cls-4" points="164.21 99.08 152.83 90.7 143.84 114.04 120.53 107.46 108.47 135.59 177.3 135.59 164.21 99.08"/>
      <path class="cls-4" d="m116.78,89.5c-1.6-4.46-6.51-8.08-10.98-8.08s-6.78,3.62-5.18,8.08c1.6,4.46,6.51,8.08,10.98,8.08s6.78-3.62,5.18-8.08Z"/>
    </g>
    <g>
      <polygon class="cls-22" points="190.77 127.84 113.56 127.84 89.96 62.01 167.17 62.01 190.77 127.84"/>
      <polygon class="cls-18" points="185.3 124.25 116.47 124.25 95.44 65.6 164.27 65.6 185.3 124.25"/>
      <polygon class="cls-4" points="172.21 87.74 160.83 79.36 151.84 102.71 128.53 96.12 116.47 124.25 185.3 124.25 172.21 87.74"/>
      <path class="cls-4" d="m124.78,78.17c-1.6-4.46-6.51-8.08-10.98-8.08s-6.78,3.62-5.18,8.08c1.6,4.46,6.51,8.08,10.98,8.08s6.78-3.62,5.18-8.08Z"/>
    </g>
    <g>
      <path class="cls-19" d="m191.12,51.68l1.86,4.5h-.54c-.39-.79-.74-1.36-1.05-1.7-.49-.55-1.03-.95-1.61-1.21-.58-.26-1.27-.39-2.06-.39h-2.7l5.36,14.67c.43,1.18.83,1.92,1.19,2.21.5.4,1.13.59,1.87.59h.67l.19.52h-8.14l-.19-.52h.68c.81,0,1.3-.25,1.46-.74.1-.3-.05-.99-.44-2.07l-5.36-14.67h-2.31c-.9,0-1.51.07-1.84.2-.43.18-.72.52-.88,1.03-.16.51-.12,1.2.13,2.07h-.54l-1.42-4.5h15.68Z"/>
      <line class="cls-9" x1="202.81" y1="60.72" x2="208.69" y2="60.72"/>
      <polygon class="cls-9" points="208.5 76.29 178.93 76.29 167.98 46.35 197.55 46.35 208.5 76.29"/>
      <polygon class="cls-6" points="174.72 61.83 172.51 61.83 171.7 59.61 173.91 59.61 174.72 61.83"/>
      <polygon class="cls-6" points="204.32 61.83 202.11 61.83 201.3 59.61 203.51 59.61 204.32 61.83"/>
      <polygon class="cls-6" points="169.53 47.62 167.31 47.62 166.5 45.41 168.72 45.41 169.53 47.62"/>
      <polygon class="cls-6" points="199.13 47.62 196.91 47.62 196.1 45.41 198.32 45.41 199.13 47.62"/>
      <polygon class="cls-6" points="184.34 47.62 182.12 47.62 181.31 45.41 183.53 45.41 184.34 47.62"/>
      <polygon class="cls-6" points="180.35 77.22 178.14 77.22 177.33 75 179.54 75 180.35 77.22"/>
      <polygon class="cls-6" points="209.95 77.22 207.74 77.22 206.93 75 209.14 75 209.95 77.22"/>
      <line class="cls-9" x1="193.88" y1="76.82" x2="196.03" y2="82.7"/>
      <polygon class="cls-6" points="195.16 77.22 192.95 77.22 192.14 75 194.35 75 195.16 77.22"/>
      <polygon class="cls-22" points="197.57 83.8 195.35 83.8 194.54 81.59 196.76 81.59 197.57 83.8"/>
      <line class="cls-9" x1="177.16" y1="70.67" x2="201.99" y2="70.67"/>
      <path class="cls-22" d="m209.85,60.72c-.24-.64-.95-1.17-1.59-1.17s-.98.52-.74,1.17c.24.64.95,1.17,1.59,1.17s.98-.52.74-1.17Z"/>
    </g>
  </g>
  <g id="Table">
    <g>
      <polygon class="cls-20" points="72.81 219.49 99.6 242.45 74.07 367.37 75.79 367.37 104.19 244.75 130.21 266.56 93.47 367.22 95.77 366.83 134.42 268.86 241.96 366.83 307.4 366.83 230.86 216.81 72.81 219.49"/>
      <g>
        <polygon class="cls-10" points="75.79 367.37 74.07 367.37 71.48 217.36 78.39 217.36 75.79 367.37"/>
        <polygon class="cls-10" points="224.65 367.37 222.92 367.37 220.33 217.36 227.24 217.36 224.65 367.37"/>
        <rect class="cls-1" x="68.84" y="215.04" width="166.36" height="3.89"/>
      </g>
    </g>
  </g>
  <g id="Paper_Bin" data-name="Paper Bin">
    <g>
      <g>
        <path class="cls-1" d="m31.27,295.57l-3.02,6.38s3.7,4.03,5.38,4.03,2.35-1.68,4.37-2.35c2.02-.67,5.38-7.06,5.38-7.06,0,0-2.02-3.36-4.03-3.7s-5.04-1.34-6.72-1.68c-1.68-.34-1.34,4.37-1.34,4.37Z"/>
        <path class="cls-13" d="m31.27,295.57l2.02,3.36v3.02s2.02,1.01,2.69,0c.67-1.01,3.7-4.37,3.7-4.37l-1.34-3.02"/>
        <line class="cls-13" x1="33.29" y1="301.96" x2="29.59" y2="301.29"/>
      </g>
      <g>
        <path class="cls-1" d="m89.18,356.03l-6.79,1.94s-.59,5.44.52,6.7c1.11,1.26,2.82.66,4.65,1.73,1.84,1.07,8.85-.62,8.85-.62,0,0,1.19-3.73.11-5.47s-2.32-4.67-3.18-6.16c-.86-1.48-4.17,1.88-4.17,1.88Z"/>
        <path class="cls-13" d="m89.18,356.03l-1.19,3.73-2.27,2s.57,2.18,1.78,2.02,5.72-.11,5.72-.11l1.38-3.01"/>
        <line class="cls-13" x1="85.71" y1="361.76" x2="83.78" y2="358.54"/>
      </g>
      <g>
        <path class="cls-1" d="m20.52,294.23s-5.71,3.7-4.7,5.71,1.68,3.36,2.69,4.03,4.03,1.68,5.04,1.01,3.36-2.35,3.7-5.04,1.34-3.02.34-4.37c-1.01-1.34-7.06-1.34-7.06-1.34Z"/>
        <path class="cls-13" d="m15.81,299.94l4.03,2.69,3.36-.34,1.34-3.7s0-2.02-2.02-2.02-3.02,1.01-3.02,1.01l.67,2.02"/>
      </g>
      <g>
        <path class="cls-1" d="m45.38,289.53s-5.04,4.7-4.37,8.06c.67,3.36,7.06,6.05,7.06,6.05l7.73-4.37-2.35-6.05-5.04-2.69-3.02-1.01Z"/>
        <polyline class="cls-13" points="41.01 297.59 46.39 299.61 52.44 297.59 50.09 292.21"/>
        <polyline class="cls-13" points="45.38 289.53 45.05 296.58 49.08 297.93"/>
      </g>
      <g>
        <path class="cls-1" d="m60.5,352.7s-5.04,4.7-4.37,8.06c.67,3.36,7.06,6.05,7.06,6.05l7.73-4.37-2.35-6.05-5.04-2.69-3.02-1.01Z"/>
        <polyline class="cls-13" points="56.14 360.77 61.51 362.78 67.56 360.77 65.21 355.39"/>
        <polyline class="cls-13" points="60.5 352.7 60.17 359.76 64.2 361.1"/>
      </g>
      <g>
        <path class="cls-1" d="m26.9,284.49s-5.04,4.7-4.37,8.06c.67,3.36,7.06,6.05,7.06,6.05l7.73-4.37-2.35-6.05-5.04-2.69-3.02-1.01Z"/>
        <polyline class="cls-13" points="22.53 292.55 27.91 294.57 33.96 292.55 31.61 287.17"/>
        <polyline class="cls-13" points="26.9 284.49 26.57 291.54 30.6 292.89"/>
      </g>
      <polygon class="cls-10" points="55.1 367.37 15.22 367.37 9.24 301.26 61.08 301.26 55.1 367.37"/>
      <g>
        <path class="cls-1" d="m28.58,356.4s-5.71,3.7-4.7,5.71,1.68,3.36,2.69,4.03c1.01.67,4.03,1.68,5.04,1.01,1.01-.67,3.36-2.35,3.7-5.04.34-2.69,1.34-3.02.34-4.37-1.01-1.34-7.06-1.34-7.06-1.34Z"/>
        <path class="cls-13" d="m23.88,362.11l4.03,2.69,3.36-.34,1.34-3.7s0-2.02-2.02-2.02-3.02,1.01-3.02,1.01l.67,2.02"/>
      </g>
    </g>
  </g>
  <g id="Character">
    <g>
      <path class="cls-14" d="m134.32,169.32c0,1.04-.99,1.89-2.21,1.89s-2.21-.85-2.21-1.89.99-1.89,2.21-1.89,2.21.85,2.21,1.89Z"/>
      <path class="cls-14" d="m136.44,175.08c0,1.04-.99,1.89-2.21,1.89s-2.21-.85-2.21-1.89.99-1.89,2.21-1.89,2.21.85,2.21,1.89Z"/>
      <path class="cls-14" d="m138.57,180.84c0,1.04-.99,1.89-2.21,1.89s-2.21-.85-2.21-1.89.99-1.89,2.21-1.89,2.21.85,2.21,1.89Z"/>
      <path class="cls-14" d="m140.69,186.6c0,1.04-.99,1.89-2.21,1.89s-2.21-.85-2.21-1.89.99-1.89,2.21-1.89,2.21.85,2.21,1.89Z"/>
    </g>
    <g>
      <polygon class="cls-10" points="110.74 214.67 95.59 214.67 93.32 189.56 113.01 189.56 110.74 214.67"/>
      <polygon class="cls-16" points="112.26 197.81 94.87 206.68 95.59 214.67 103.7 214.67 111.56 205.63 112.26 197.81"/>
      <rect class="cls-16" x="91.57" y="186.56" width="23.2" height="5.46"/>
    </g>
    <g>
      <path class="cls-10" d="m155.56,214.95h-27.25c-1.91,0-3.46-1.55-3.46-3.46s1.55-3.46,3.46-3.46h27.25c1.91,0,3.46,1.55,3.46,3.46s-1.55,3.46-3.46,3.46Z"/>
      <polygon class="cls-10" points="228.03 215.04 144.15 215.04 124.14 160.58 208.03 160.58 228.03 215.04"/>
      <polygon class="cls-14" points="222.71 209.38 151.08 209.38 133.99 162.87 205.63 162.87 222.71 209.38"/>
      <g>
        <path class="cls-10" d="m236.79,234.49s-3.62,5.32-6.59,8.01c-2.97,2.69-12.05,11.11-19.58,23.86-7.53,12.75-12.76,25.78-17.74,37.06-4.98,11.28-13.96,32.1-18.52,38.44-4.56,6.34-7.56,9.73-7.56,9.73,0,0-7.45.17-16.27-.61-8.82-.78-12.47-2.38-12.58-.08-.11,2.3,5.96,8.62,10.34,9.71s9.96,2.79,11.32,4.09c1.35,1.31,3.05,2.81,5.23,1.85,2.17-.96,8.82-10.2,16.22-16.58,7.4-6.38,16.21-12.68,24.19-27.53,7.98-14.85,8.39-23.34,13.98-28.91,5.59-5.58,11.5-14.33,18.64-18.94s28.45-13.15,35.26-22.04c6.81-8.88,3.26-19.69-3.29-23.55-6.55-3.86-27.92-5.25-33.04,5.49Z"/>
        <g>
          <path class="cls-1" d="m179.63,332.49c-2.01,4.04-3.85,7.4-5.27,9.37-4.56,6.34-7.56,9.73-7.56,9.73,0,0-7.45.17-16.27-.61-8.82-.78-12.47-2.38-12.58-.08-.11,2.3,5.96,8.62,10.34,9.71,4.38,1.1,9.96,2.79,11.32,4.09,1.35,1.31,3.05,2.81,5.23,1.85,2.17-.96,8.82-10.2,16.22-16.58,3.44-2.97,7.19-5.93,11.02-9.73-6.04-1.45-10.12-5.06-12.44-7.75Z"/>
          <path class="cls-16" d="m164.84,366.55c.66-.29,1.75-1.37,3.15-2.89-5.98-1.19-9.07-4.2-11.81-4.97-3.85-1.07-7.11-3.18-7.11-3.18l2.98-4.41c-.5-.04-1.01-.08-1.52-.13-8.82-.78-12.47-2.38-12.58-.08-.11,2.3,5.96,8.62,10.34,9.71,4.38,1.1,9.96,2.79,11.32,4.09,1.35,1.31,3.05,2.81,5.23,1.85Z"/>
        </g>
      </g>
      <g>
        <path class="cls-10" d="m175.2,262.65s1.59,7.43,5.13,14.51c3.54,7.08,11.33,14.51,16.99,18.76,5.66,4.25,23.89,20.53,32.92,33.45,1.13,1.62-3.19,7.08-8.49,11.86-5.31,4.78-7.61,6.55-4.78,7.43,2.83.88,9.56.53,16.28-5.13,6.73-5.66,11.15-9.38,13.27-13.98,1.06-2.3-4.78-5.13-8.32-8.14-3.54-3.01-16.64-22.83-20.71-32.03-4.07-9.2-14.34-22.3-21.95-26.9"/>
        <g>
          <path class="cls-1" d="m246.52,329.54c1.06-2.3-4.78-5.13-8.32-8.14-2.98-2.53-12.71-16.94-18.15-26.94l-12.05,10.65c7.49,6.93,16.63,16.24,22.23,24.26,1.13,1.62-3.19,7.08-8.49,11.86-5.31,4.78-7.61,6.55-4.78,7.43,2.83.88,9.56.53,16.28-5.13,6.73-5.66,11.15-9.38,13.27-13.98Z"/>
          <path class="cls-16" d="m242.89,324.85c-.95,1.42-2.19,3.35-3.62,5.76-3.36,5.66-12.57,12.92-13.8,11.68-.69-.69-1.39-1.88-1.86-2.8-.6.58-1.22,1.17-1.85,1.74-5.31,4.78-7.61,6.55-4.78,7.43,2.83.88,9.56.53,16.28-5.13,6.73-5.66,11.15-9.38,13.27-13.98.64-1.4-1.26-2.99-3.64-4.7Z"/>
        </g>
      </g>
      <rect class="cls-1" x="230.77" y="341.05" width="60.17" height="2.83"/>
      <path class="cls-1" d="m236.26,265.12l-10.53,100.66c-.05.48.33.89.81.89h0c.4,0,.74-.29.8-.69l15.65-100.86h-6.73Z"/>
      <path class="cls-1" d="m284.4,265.12l10.53,100.66c.05.48-.33.89-.81.89h0c-.4,0-.74-.29-.8-.69l-15.65-100.86h6.73Z"/>
      <path class="cls-1" d="m265.28,265.12l.53,100.74c0,.45-.36.81-.81.81h-.01c-.43,0-.79-.34-.81-.77l-5.62-100.79h6.73Z"/>
      <g>
        <rect class="cls-17" x="227.06" y="249.9" width="65.66" height="16.28" rx="4.97" ry="4.97"/>
        <g class="cls-29">
          <path class="cls-20" d="m287.75,249.9h-54.45l-1.62,3.41s50.28.87,50.28,3.78.87,6.68-9.01,6.68c-8,0-34.85.38-44.79.53.4.5.88.91,1.44,1.23l2.92.66h55.23c2.74,0,4.97-2.22,4.97-4.97v-6.34c0-2.74-2.22-4.97-4.97-4.97Z"/>
        </g>
        <rect class="cls-13" x="227.06" y="249.9" width="65.66" height="16.28" rx="4.97" ry="4.97"/>
      </g>
      <path class="cls-10" d="m176.62,269.02c-1.24-4.07-6.37-12.21,18.23-29.2,13.04-9.01,41.24-15.93,41.24-15.93l2.65-3.01s7.61,7.96,22.48,7.43c14.87-.53,24.07-7.08,25.84-6.55,1.77.53,1.95,5.13,1.24,13.8-.71,8.67-1.59,13.1-8.49,15.22-6.9,2.12-22.12,2.83-33.09,2.65-10.97-.18-16.28-.88-16.28-.88,0,0-23.54,14.87-38.23,15.93"/>
      <g>
        <g>
          <path class="cls-1" d="m231.13,171.5c-1.07.34-33.45,6.73-36.28,6.19-2.83-.53-10.26-6.9-12.92-6.73-2.65.18-7.96,1.06-8.49,2.48-.53,1.42,1.24,6.19,1.24,6.19,0,0-1.77,2.65-.88,3.89.88,1.24,6.02-1.77,6.02-1.77,0,0,5.84,4.25,8.49,3.36,2.65-.88,5.49-1.95,5.49-1.95,0,0,41.59,2.48,42.12,2.65.53.18,5.66,1.24,6.19-6.19.53-7.43-4.78-10.09-10.97-8.14Z"/>
          <line class="cls-13" x1="174.67" y1="179.64" x2="181.93" y2="173.63"/>
          <polygon class="cls-22" points="177.32 176.99 181.22 164.78 182.81 165.13 180.86 173.98 177.32 176.99"/>
        </g>
        <g>
          <path class="cls-2" d="m205.82,184.42s-43.01,11.86-49.91,10.97c-6.9-.88-9.03-3.89-10.62-3.89s-6.02,2.12-7.96,1.95c-1.95-.18-4.25-.71-4.25.53s1.77,3.19,2.83,3.19,5.31-.18,5.31-.18c0,0-8.32,2.48-8.67,4.07-.35,1.59.71,3.01,2.3,3.36,1.59.35,2.3,1.06,2.3,1.06,0,0,.71,2.65,1.77,3.89,1.06,1.24,4.25,1.77,7.79,1.06,3.54-.71,9.73-3.89,11.15-4.78s44.42-4.78,47.61-5.49c3.19-.71,7.08-.71,8.32-2.83,1.24-2.12-7.96-12.92-7.96-12.92Z"/>
          <g class="cls-27">
            <path class="cls-18" d="m153.81,203.96c-7.39,0-5.75-7.39-8.21-6.16-2.15,1.07-10.54,2.15-12.92,4.86.35.87,1.15,1.53,2.17,1.76,1.59.35,2.3,1.06,2.3,1.06,0,0,.71,2.65,1.77,3.89,1.06,1.24,4.25,1.77,7.79,1.06,3.54-.71,9.73-3.89,11.15-4.78,1.42-.88,44.42-4.78,47.61-5.49,2.57-.57,5.61-.68,7.33-1.83.61-.62.98-1.01.98-1.01l-4.56-4.46s-48.02,11.08-55.41,11.08Z"/>
            <path class="cls-3" d="m153.81,203.96c-7.39,0-5.75-7.39-8.21-6.16-2.15,1.07-10.54,2.15-12.92,4.86.35.87,1.15,1.53,2.17,1.76,1.59.35,2.3,1.06,2.3,1.06,0,0,.71,2.65,1.77,3.89,1.06,1.24,4.25,1.77,7.79,1.06,3.54-.71,9.73-3.89,11.15-4.78,1.42-.88,44.42-4.78,47.61-5.49,2.57-.57,5.61-.68,7.33-1.83.61-.62.98-1.01.98-1.01l-4.56-4.46s-48.02,11.08-55.41,11.08Z"/>
          </g>
          <path class="cls-13" d="m205.82,184.42s-43.01,11.86-49.91,10.97c-6.9-.88-9.03-3.89-10.62-3.89s-6.02,2.12-7.96,1.95c-1.95-.18-4.25-.71-4.25.53s1.77,3.19,2.83,3.19,5.31-.18,5.31-.18c0,0-8.32,2.48-8.67,4.07-.35,1.59.71,3.01,2.3,3.36,1.59.35,2.3,1.06,2.3,1.06,0,0,.71,2.65,1.77,3.89,1.06,1.24,4.25,1.77,7.79,1.06,3.54-.71,9.73-3.89,11.15-4.78s44.42-4.78,47.61-5.49c3.19-.71,7.08-.71,8.32-2.83,1.24-2.12-7.96-12.92-7.96-12.92Z"/>
        </g>
        <g>
          <g>
            <g>
              <path class="cls-17" d="m242.1,141.06s-3.89,10.62-8.85,17.7c-4.96,7.08-7.08,14.51-3.89,22.48,3.19,7.96,10.09,9.73,10.09,9.73,0,0-2.48,23.36-1.77,29.56.71,6.19,10.26,13.45,24.6,13.98,14.34.53,26.72-4.6,26.72-9.56s-10.09-31.33-10.09-36.81.88-22.65-3.89-38.05c-4.78-15.4-21.59-20.35-32.92-9.03Z"/>
              <g class="cls-25">
                <path class="cls-20" d="m275.02,150.09c-2.57-8.3-8.64-13.55-15.46-14.87-3.29.73-12.27,2.84-14.52,3.36-1.01.72-1.99,1.54-2.94,2.48,0,0-3.89,10.62-8.85,17.7-3.32,4.75-5.36,9.65-5.39,14.77,13.06,3.09,33,8.11,31.02,8.67-2.87.82-15.19-5.75-11.49-1.64,3.69,4.1,23.39,22.98,17.65,21.34-5.75-1.64-18.47-15.19-15.19-8.62s12.31,17.24,9.44,17.24-18.06-15.19-12.72-6.16c5.34,9.03,29.55,23.39,21.75,25.45-4.5,1.18-14.05.87-19.6,1.81,3.76,1.6,8.33,2.69,13.55,2.89,14.34.53,26.72-4.6,26.72-9.56s-10.09-31.33-10.09-36.81.88-22.65-3.89-38.05Z"/>
              </g>
              <path class="cls-13" d="m242.1,141.06s-3.89,10.62-8.85,17.7c-4.96,7.08-7.08,14.51-3.89,22.48,3.19,7.96,10.09,9.73,10.09,9.73,0,0-2.48,23.36-1.77,29.56.71,6.19,10.26,13.45,24.6,13.98,14.34.53,26.72-4.6,26.72-9.56s-10.09-31.33-10.09-36.81.88-22.65-3.89-38.05c-4.78-15.4-21.59-20.35-32.92-9.03Z"/>
            </g>
            <path class="cls-13" d="m244.27,184.01s13,21,32,27"/>
            <path class="cls-13" d="m242.77,187.51s5,16.5,18,24.5"/>
            <path class="cls-13" d="m245.46,174.29s11.75-5.12,16.56-8.43"/>
            <path class="cls-13" d="m240.64,175.49s4.22.9,15.06,0"/>
          </g>
          <g>
            <path class="cls-17" d="m241.04,143.72s-3.36,1.95-7.43,6.19-23.72,33.98-23.72,33.98c0,0,5.84,12.21,7.61,12.57,1.77.35,32.56-26.02,35.4-29.2,2.83-3.19,4.6-9.03,3.72-11.5"/>
            <g class="cls-30">
              <path class="cls-20" d="m252.89,167.25c2.83-3.19,4.6-9.03,3.72-11.5l-6.99-5.4-2.23,2.31s-.16,9.06-8.21,13.95-11.49,4.93-12.72,11.08c-1.23,6.16,2.87,7.8-2.05,8.62s-8.21,1.23-8.21,4.51c0,.97.11,2.82.37,4.87.37.43.69.71.93.76,1.77.35,32.56-26.02,35.4-29.2Z"/>
            </g>
            <path class="cls-13" d="m241.04,143.72s-3.36,1.95-7.43,6.19-23.72,33.98-23.72,33.98c0,0,5.84,12.21,7.61,12.57,1.77.35,32.56-26.02,35.4-29.2,2.83-3.19,4.6-9.03,3.72-11.5"/>
          </g>
          <path class="cls-1" d="m203.16,185.66s5.49,13.1,6.73,14.51c1.24,1.42,7.79.53,9.91-1.06,2.12-1.59,1.77-4.78,1.77-4.78,0,0-8.14-14.34-9.03-15.04-.88-.71-1.24.88-4.96,2.12-3.72,1.24-5.13,1.77-4.42,4.25Z"/>
        </g>
        <g>
          <g>
            <path class="cls-2" d="m212.01,107.61s-.35,5.13.53,6.73c.88,1.59,3.36,3.19,3.36,5.31s-1.77,4.96-1.24,6.55c.53,1.59,3.36,1.77,3.36,1.77,0,0,5.31,6.55,6.9,8.85s2.3,1.42,4.78.71,7.79-5.31,10.8-8.85c3.01-3.54-1.95-14.34-8.49-21.59s-16.28-7.08-18.41-4.96c-2.12,2.12-1.59,5.49-1.59,5.49Z"/>
            <g class="cls-28">
              <path class="cls-18" d="m226.04,102.65c-.82,4.04-1.64,10.88.82,15.53,3.69,6.98,6.57,10.67,4.51,16.42-.37,1.02-.74,1.92-1.12,2.72,2.65-1.14,7.44-5.35,10.24-8.65,3.01-3.54-1.95-14.34-8.49-21.59-1.82-2.02-3.89-3.44-5.97-4.43Z"/>
              <path class="cls-3" d="m226.04,102.65c-.82,4.04-1.64,10.88.82,15.53,3.69,6.98,6.57,10.67,4.51,16.42-.37,1.02-.74,1.92-1.12,2.72,2.65-1.14,7.44-5.35,10.24-8.65,3.01-3.54-1.95-14.34-8.49-21.59-1.82-2.02-3.89-3.44-5.97-4.43Z"/>
              <path class="cls-13" d="m215.91,115.22s0-2.65,3.19-.88"/>
              <path class="cls-13" d="m218.17,117.69l.42,2.44s1.94.67,3.37-1.85"/>
            </g>
            <path class="cls-13" d="m212.01,107.61s-.35,5.13.53,6.73c.88,1.59,3.36,3.19,3.36,5.31s-1.77,4.96-1.24,6.55c.53,1.59,3.36,1.77,3.36,1.77,0,0,5.31,6.55,6.9,8.85s2.3,1.42,4.78.71,7.79-5.31,10.8-8.85c3.01-3.54-1.95-14.34-8.49-21.59s-16.28-7.08-18.41-4.96c-2.12,2.12-1.59,5.49-1.59,5.49Z"/>
          </g>
          <g>
            <path class="cls-26" d="m206.53,99.83l-.03.71-.33,8.67,9.56,1.24,2.12-3.72v4.07s4.07-.53,8.67,1.24c4.6,1.77,10.44,14.34,10.09,19.47-.35,5.13-4.78,6.19-4.25,13.98.53,7.79,12.39,15.57,21.41,10.62s10.44-11.33,14.16-10.09c3.72,1.24,9.38,8.85,12.92-1.95s1.95-17.7-6.37-26.55c-8.32-8.85-14.87-8.14-15.93-15.22-1.06-7.08-3.36-16.64-10.97-21.95s-18.58-5.66-27.96-1.59c-9.38,4.07-13.1,16.46-13.1,21.06Z"/>
            <g class="cls-31">
              <g>
                <path class="cls-21" d="m211.85,103.89c-.06,0-.13,0-.19-.02-1.02-.23-1.17-2-1.26-6.31-.03-1.11-.05-2.27-.12-3.18,0-.09-.02-.17-.03-.23-.84,1.02-2.65,5.25-4.01,9.03l-.94-.34c3.62-10.08,4.8-9.93,5.18-9.88.69.09.76,1,.79,1.34.07.95.1,2.11.12,3.24.04,1.78.1,4.69.48,5.31.15-.11.5-.49,1.12-1.73,1.04-2.08,1.96-3.04,2.92-2.99,1.19.05,1.8,1.62,2.25,2.77.13.34.27.7.37.84.44.12,2-1.48,2.84-2.33.25-.25.49-.51.73-.74.38-.38.87-.79,1.42-.71.55.08.83.6,1.12,1.15.27.51.57,1.08,1.12,1.52.32.25.48.21.55.2.72-.17,1.59-2.11,2.6-4.36.24-.52.48-1.08.75-1.66.33-.72.78-1.55,1.52-1.48.94.07,1.36,1.53,2,3.74.52,1.8,1.12,3.85,1.99,4.97.22.28.54.61.82.57.78-.12,1.64-2.43,2.16-3.82.32-.85.59-1.58.86-2.03.28-.47.64-.56.85-.55.74.02,1.24,1.01,1.94,2.36.52,1.02,1.23,2.41,1.82,2.64.12.05.16.02.19.01.39-.2.72-1.48,1-2.52.31-1.2.64-2.44,1.22-3.31.35-.53.81-.84,1.36-.93,1.31-.21,2.76.92,3.74,1.68-.05-.51-.16-1.21-.25-1.82-.5-3.32-.65-4.94.19-5.39.39-.21.85-.09,1.37.37.69.61,1.6,1.62,2.56,2.69,1.83,2.05,4.61,5.16,5.73,4.86.31-.08.48-.56.56-.95l.98.21c-.21.96-.64,1.53-1.28,1.7-1.61.42-3.8-1.87-6.73-5.16-.94-1.05-1.82-2.04-2.47-2.61-.11-.09-.19-.15-.24-.18-.22.63.15,3.09.33,4.3.36,2.35.43,2.98-.03,3.27-.2.13-.45.12-.67-.03-.17-.11-.39-.28-.63-.47-.79-.61-2.1-1.63-2.98-1.49-.28.05-.5.2-.69.5-.49.73-.79,1.89-1.08,3.01-.39,1.48-.72,2.76-1.51,3.16-.21.11-.57.2-1.01.02-.94-.38-1.65-1.77-2.34-3.12-.31-.61-.77-1.5-1.04-1.76,0,0,0,0,0,0-.23.38-.5,1.1-.78,1.87-.74,1.99-1.58,4.25-2.95,4.46-.61.09-1.21-.22-1.76-.94-1-1.28-1.62-3.42-2.17-5.31-.34-1.18-.81-2.79-1.14-3.02,0,.04-.2.21-.51.9-.27.58-.51,1.13-.75,1.65-1.25,2.79-2.08,4.63-3.28,4.92-.47.11-.94-.02-1.41-.39-.72-.57-1.1-1.3-1.38-1.84-.13-.24-.31-.58-.4-.63,0,0-.15.04-.55.44-.24.23-.48.48-.72.73-1.66,1.7-2.72,2.72-3.63,2.65-.31-.03-.57-.19-.75-.46-.15-.23-.29-.58-.46-1.03-.29-.74-.82-2.11-1.36-2.13-.16-.03-.83.15-1.98,2.44-.81,1.63-1.42,2.33-2.04,2.33Z"/>
                <path class="cls-24" d="m231.74,144.07s2.48-9.23,4.95-6.31c2.48,2.93,4.28,3.83,4.5,1.35.23-2.48,0-6.08,2.48-2.7s8.56,6.76,9.01,1.58c.45-5.18,1.13-12.16,4.05-8.56,2.93,3.6,5.4,6.31,5.63,4.28.23-2.03,2.25-3.6,3.15-1.35.9,2.25,1.58,4.5,2.25-.68.68-5.18-2.48-10.81.9-9.46,3.38,1.35,4.95,5.85,4.95,3.38s-4.05-5.4-.45-4.5c3.6.9,4.05,3.15,4.5,1.8.45-1.35-2.03-4.5,1.13-4.5"/>
              </g>
            </g>
            <path class="cls-13" d="m206.53,99.83l-.03.71-.33,8.67,9.56,1.24,2.12-3.72v4.07s4.07-.53,8.67,1.24c4.6,1.77,10.44,14.34,10.09,19.47-.35,5.13-4.78,6.19-4.25,13.98.53,7.79,12.39,15.57,21.41,10.62s10.44-11.33,14.16-10.09c3.72,1.24,9.38,8.85,12.92-1.95s1.95-17.7-6.37-26.55c-8.32-8.85-14.87-8.14-15.93-15.22-1.06-7.08-3.36-16.64-10.97-21.95s-18.58-5.66-27.96-1.59c-9.38,4.07-13.1,16.46-13.1,21.06Z"/>
          </g>
        </g>
      </g>
    </g>
  </g>
  <g id="Ground">
    <line class="cls-12" y1="367.37" x2="365.94" y2="367.37"/>
  </g>
</svg>