<?xml version="1.0" encoding="UTF-8"?>
<svg id="Layer_2" data-name="Layer 2" xmlns="http://www.w3.org/2000/svg" xmlns:xlink="http://www.w3.org/1999/xlink" viewBox="0 0 371.91 386.26">
  <defs>
    <style>
      .cls-1, .cls-2, .cls-3, .cls-4, .cls-5 {
        fill: #fff;
      }

      .cls-6, .cls-7, .cls-8 {
        fill: #38302f;
      }

      .cls-2, .cls-9, .cls-10, .cls-11, .cls-12, .cls-7, .cls-13, .cls-8, .cls-14, .cls-15, .cls-16, .cls-5 {
        stroke-linecap: round;
      }

      .cls-2, .cls-10, .cls-11, .cls-7, .cls-13, .cls-8, .cls-14, .cls-16, .cls-5 {
        stroke: #38302f;
      }

      .cls-2, .cls-11, .cls-12, .cls-7, .cls-14, .cls-15, .cls-16 {
        stroke-linejoin: round;
      }

      .cls-9 {
        stroke: #000;
      }

      .cls-9, .cls-10, .cls-12, .cls-14, .cls-15, .cls-16 {
        fill: none;
      }

      .cls-9, .cls-10, .cls-13, .cls-8, .cls-5 {
        stroke-miterlimit: 10;
      }

      .cls-17, .cls-18, .cls-3, .cls-4, .cls-19 {
        stroke-width: 0px;
      }

      .cls-17, .cls-20, .cls-11, .cls-13 {
        fill: #9b86ff;
      }

      .cls-21 {
        clip-path: url(#clippath-2);
      }

      .cls-18, .cls-22 {
        opacity: .3;
      }

      .cls-3, .cls-19 {
        opacity: .5;
      }

      .cls-12, .cls-15 {
        stroke: #fff;
      }

      .cls-23 {
        clip-path: url(#clippath-1);
      }

      .cls-24 {
        clip-path: url(#clippath-4);
      }

      .cls-25 {
        clip-path: url(#clippath);
      }

      .cls-4 {
        opacity: .7;
      }

      .cls-26 {
        clip-path: url(#clippath-3);
      }

      .cls-15 {
        opacity: .26;
      }

      .cls-16 {
        stroke-width: .5px;
      }
    </style>
    <clipPath id="clippath">
      <path class="cls-11" d="m10.58,223s-1.23,25.77-1.1,32.91c.14,7.14.31,9.81,3.85,10.44s17.2,2.01,21.03.62c3.83-1.39,5-2.6,6.27-4.72,1.27-2.12,7.3-30.56,8.67-38.55s6.84-93.12,6.84-93.12c0,0,.21-1.81-3.43-3.42-3.04-1.35-17.72-1.99-22.48-2.16-2.33-.09-4.45,1.43-5.05,3.69,0,.04-.02.07-.03.11-.92,3.67-14.58,94.21-14.58,94.21Z"/>
    </clipPath>
    <clipPath id="clippath-1">
      <path class="cls-7" d="m38.52,225.99c-4.27.04-22.66-1.95-25.5-2.55-.95-.2-1.75-.43-2.4-.64-.02.12-.03.19-.03.19,0,0-1.23,25.77-1.1,32.91.14,7.14.31,9.81,3.85,10.44s17.2,2.01,21.03.62c3.83-1.39,5-2.6,6.27-4.72,1.24-2.06,6.98-29.04,8.54-37.86-3.61,1.87-7.16,1.57-10.67,1.61Z"/>
    </clipPath>
    <clipPath id="clippath-2">
      <path class="cls-5" d="m292.11,385.76l-49.52-85.6s-5.54-38.89-17.35-54.54c-11.81-15.65-28.37-27.07-18.76-35.07,9.61-8,34-23.29,39.02-22.32s38.66,17.96,48.17,20.75c9.51,2.79,12.84,6.79,11.42,15.02-1.42,8.23-2.02,65.78.8,73.73,2.82,7.95,34.06,64.59,34.06,64.59"/>
    </clipPath>
    <clipPath id="clippath-3">
      <path class="cls-5" d="m264.89,242.29s-11.34,2.66-16.4,1.46c-5.07-1.2-15.42-15.76-22.53-20.55-7.11-4.79-11.44-5.93-18.88-7.05-7.44-1.12-12.58,2.47-10.98,9.28,1.6,6.8,10.23,15.06,16.54,20.52,6.31,5.46,12.33,14.81,16.07,25.65,3.74,10.84,6.08,20.82,14.4,31.79,8.32,10.97,18.7,15.47,22.2,16.08"/>
    </clipPath>
    <clipPath id="clippath-4">
      <path class="cls-5" d="m304.96,221.4l1.36-4.39c1.36-4.39.33-10.84-3.41-14.51-3.73-3.67-16.97-10.13-20.88-13.52-3.91-3.39-32.93-24.09-38.14-22.86s-11.37,8.65-16.62,12.75c-5.26,4.1-24.12,19.54-24.12,19.54,0,0-13.25,5.74-12.61,8.46.64,2.72,3.36,6.15,11.67,5.87,8.31-.28,22.15-8.55,24.26-9.76,2.11-1.21,15.17-9.78,15.17-9.78,0,0,5.34,5.44,11.52,8.3,6.17,2.86,6.96,3.15,6.96,3.15,0,0,1.61,5.84,6.14,8.84"/>
    </clipPath>
  </defs>
  <g id="Background_Simple" data-name="Background Simple">
    <g>
      <path class="cls-17" d="m308.65,164.51s3.47-11.75,15.24-36.61c16.11-34.02-7.05-72.26-52.95-92.21-53.8-23.38-123.01-14.67-172.9-.38-41.27,11.82-58.31,42.68-65.74,73.44-3.76,15.58-4.48,31.53-6.85,47.32-3.16,21.06-10.06,42.45-16.1,63.08-7.3,24.92-14.53,53.06-4.23,79.96,31.73,82.86,206.08,86.44,274.7,48.09,38.79-21.67,53.08-53.54,39.98-90.73-9.69-27.52-19.12-65.11-11.16-91.97Z"/>
      <path class="cls-4" d="m308.65,164.51s3.47-11.75,15.24-36.61c16.11-34.02-7.05-72.26-52.95-92.21-53.8-23.38-123.01-14.67-172.9-.38-41.27,11.82-58.31,42.68-65.74,73.44-3.76,15.58-4.48,31.53-6.85,47.32-3.16,21.06-10.06,42.45-16.1,63.08-7.3,24.92-14.53,53.06-4.23,79.96,31.73,82.86,206.08,86.44,274.7,48.09,38.79-21.67,53.08-53.54,39.98-90.73-9.69-27.52-19.12-65.11-11.16-91.97Z"/>
    </g>
  </g>
  <g id="Notebook">
    <g>
      <path class="cls-18" d="m265.87,92.04c.52-.08.88-.57.8-1.09-.08-.52-.57-.88-1.09-.8l-3.79.59-.11-.72,3.79-.59c.52-.08.88-.57.8-1.09-.08-.52-.57-.88-1.09-.8l-3.79.59-.81-5.22-11.38-10.29L100.12,346.6l11.42,7.71,186.74-29.06-2.09-13.4,3.79-.59c.52-.08.88-.57.8-1.09-.08-.52-.57-.88-1.09-.8l-3.79.59-.11-.72,3.79-.59c.52-.08.88-.57.8-1.09-.08-.52-.57-.88-1.09-.8l-3.79.59-1.1-7.05,3.79-.59c.52-.08.88-.57.8-1.09s-.57-.88-1.09-.8l-3.79.59-.11-.72,3.79-.59c.52-.08.88-.57.8-1.09-.08-.52-.57-.88-1.09-.8l-3.79.59-1.1-7.05,3.79-.59c.52-.08.88-.57.8-1.09-.08-.52-.57-.88-1.09-.8l-3.79.59-.11-.72,3.79-.59c.52-.08.88-.57.8-1.09-.08-.52-.57-.88-1.09-.8l-3.79.59-1.1-7.05,3.79-.59c.52-.08.88-.57.8-1.09-.08-.52-.57-.88-1.09-.8l-3.79.59-.11-.72,3.79-.59c.52-.08.88-.57.8-1.09-.08-.52-.57-.88-1.09-.8l-3.79.59-1.1-7.05,3.79-.59c.52-.08.88-.57.8-1.09-.08-.52-.57-.88-1.09-.8l-3.79.59-.11-.72,3.79-.59c.52-.08.88-.57.8-1.09-.08-.52-.57-.88-1.09-.8l-3.79.59-1.1-7.05,3.79-.59c.52-.08.88-.57.8-1.09-.08-.52-.57-.88-1.09-.8l-3.79.59-.11-.72,3.79-.59c.52-.08.88-.57.8-1.09-.08-.52-.57-.88-1.09-.8l-3.79.59-1.1-7.05,3.79-.59c.52-.08.88-.57.8-1.09s-.57-.88-1.09-.8l-3.79.59-.11-.72,3.79-.59c.52-.08.88-.57.8-1.09-.08-.52-.57-.88-1.09-.8l-3.79.59-1.1-7.05,3.79-.59c.52-.08.88-.57.8-1.09-.08-.52-.57-.88-1.09-.8l-3.79.59-.11-.72,3.79-.59c.52-.08.88-.57.8-1.09-.08-.52-.57-.88-1.09-.8l-3.79.59-1.1-7.05,3.79-.59c.52-.08.88-.57.8-1.09-.08-.52-.57-.88-1.09-.8l-3.79.59-.11-.72,3.79-.59c.52-.08.88-.57.8-1.09-.08-.52-.57-.88-1.09-.8l-3.79.59-1.1-7.05,3.79-.59c.52-.08.88-.57.8-1.09-.08-.52-.57-.88-1.09-.8l-3.79.59-.11-.72,3.79-.59c.52-.08.88-.57.8-1.09-.08-.52-.57-.88-1.09-.8l-3.79.59-1.1-7.05,3.79-.59c.52-.08.88-.57.8-1.09-.08-.52-.57-.88-1.09-.8l-3.79.59-.11-.72,3.79-.59c.52-.08.88-.57.8-1.09-.08-.52-.57-.88-1.09-.8l-3.79.59-1.1-7.05,3.79-.59c.52-.08.88-.57.8-1.09-.08-.52-.57-.88-1.09-.8l-3.79.59-.11-.72,3.79-.59c.52-.08.88-.57.8-1.09-.08-.52-.57-.88-1.09-.8l-3.79.59-1.1-7.05,3.79-.59c.52-.08.88-.57.8-1.09-.08-.52-.57-.88-1.09-.8l-3.79.59-.11-.72,3.79-.59c.52-.08.88-.57.8-1.09-.08-.52-.57-.88-1.09-.8l-3.79.59-1.1-7.05,3.79-.59c.52-.08.88-.57.8-1.09-.08-.52-.57-.88-1.09-.8l-3.79.59-.11-.72,3.79-.59c.52-.08.88-.57.8-1.09-.08-.52-.57-.88-1.09-.8l-3.79.59-1.1-7.05,3.79-.59c.52-.08.88-.57.8-1.09-.08-.52-.57-.88-1.09-.8l-3.79.59-.11-.72,3.79-.59c.52-.08.88-.57.8-1.09-.08-.52-.57-.88-1.09-.8l-3.79.59-1.1-7.05,3.79-.59c.52-.08.88-.57.8-1.09-.08-.52-.57-.88-1.09-.8l-3.79.59-.11-.72,3.79-.59c.52-.08.88-.57.8-1.09-.08-.52-.57-.88-1.09-.8l-3.79.59-1.1-7.05,3.79-.59c.52-.08.88-.57.8-1.09-.08-.52-.57-.88-1.09-.8l-3.79.59-.11-.72,3.79-.59c.52-.08.88-.57.8-1.09-.08-.52-.57-.88-1.09-.8l-3.79.59-1.1-7.05,3.79-.59c.52-.08.88-.57.8-1.09-.08-.52-.57-.88-1.09-.8l-3.79.59-.11-.72,3.79-.59c.52-.08.88-.57.8-1.09-.08-.52-.57-.88-1.09-.8l-3.79.59-1.1-7.05,3.79-.59c.52-.08.88-.57.8-1.09-.08-.52-.57-.88-1.09-.8l-3.79.59-.11-.72,3.79-.59c.52-.08.88-.57.8-1.09-.08-.52-.57-.88-1.09-.8l-3.79.59-1.1-7.05,3.79-.59Z"/>
      <g>
        <path class="cls-8" d="m106.15,349.24l173.15-26.95-38.65-248.34-173.15,26.95c-4.42.69-7.44,4.83-6.75,9.24l36.16,232.34c.69,4.42,4.83,7.44,9.24,6.75Z"/>
        <g>
          <path class="cls-5" d="m94.68,313.78h9.98c1.46,0,2.65,1.19,2.65,2.65v22.6c0,1.46-1.19,2.65-2.65,2.65h-9.98v-27.9h0Z" transform="translate(251.19 636.04) rotate(171.15)"/>
          <path class="cls-13" d="m90.17,284.8h9.98c1.46,0,2.65,1.19,2.65,2.65v22.6c0,1.46-1.19,2.65-2.65,2.65h-9.98v-27.9h0Z" transform="translate(237.77 579.1) rotate(171.15)"/>
          <path class="cls-5" d="m85.66,255.81h9.98c1.46,0,2.65,1.19,2.65,2.65v22.6c0,1.46-1.19,2.65-2.65,2.65h-9.98v-27.9h0Z" transform="translate(224.34 522.17) rotate(171.15)"/>
          <path class="cls-13" d="m81.15,226.83h9.98c1.46,0,2.65,1.19,2.65,2.65v22.6c0,1.46-1.19,2.65-2.65,2.65h-9.98v-27.9h0Z" transform="translate(210.92 465.24) rotate(171.15)"/>
        </g>
        <path class="cls-5" d="m77.19,198.57l5.91-.92-15.07-96.83,181.15-28.19,38.65,248.34-181.15,28.19-19.29-123.94-5.91.92c-1.45.23-2.8-.76-3.03-2.21l-3.48-22.34c-.23-1.45.76-2.8,2.21-3.03Z"/>
        <polygon class="cls-17" points="96.56 153.73 97.15 167.3 164.76 156.27 162.99 144.91 96.56 153.73"/>
        <g>
          <g>
            <path class="cls-8" d="m239.11,87.84c.3,1.93,2.11,3.25,4.04,2.95,1.93-.3,3.25-2.11,2.95-4.04-.3-1.93-2.11-3.25-4.04-2.95-1.93.3-3.25,2.11-2.95,4.04Z"/>
            <path class="cls-5" d="m242.98,86.75l10.58-1.65c.52-.08.88-.57.8-1.09h0c-.08-.52-.57-.88-1.09-.8l-10.58,1.65c-.52.08-.88.57-.8,1.09h0c.08.52.57.88,1.09.8Z"/>
            <path class="cls-5" d="m243.39,89.35l10.58-1.65c.52-.08.88-.57.8-1.09h0c-.08-.52-.57-.88-1.09-.8l-10.58,1.65c-.52.08-.88.57-.8,1.09h0c.08.52.57.88,1.09.8Z"/>
          </g>
          <g>
            <path class="cls-8" d="m240.91,99.38c.3,1.93,2.11,3.25,4.04,2.95,1.93-.3,3.25-2.11,2.95-4.04s-2.11-3.25-4.04-2.95c-1.93.3-3.25,2.11-2.95,4.04Z"/>
            <path class="cls-5" d="m244.78,98.28l10.58-1.65c.52-.08.88-.57.8-1.09h0c-.08-.52-.57-.88-1.09-.8l-10.58,1.65c-.52.08-.88.57-.8,1.09h0c.08.52.57.88,1.09.8Z"/>
            <path class="cls-5" d="m245.18,100.89l10.58-1.65c.52-.08.88-.57.8-1.09h0c-.08-.52-.57-.88-1.09-.8l-10.58,1.65c-.52.08-.88.57-.8,1.09h0c.08.52.57.88,1.09.8Z"/>
          </g>
          <g>
            <path class="cls-8" d="m242.71,110.92c.3,1.93,2.11,3.25,4.04,2.95,1.93-.3,3.25-2.11,2.95-4.04-.3-1.93-2.11-3.25-4.04-2.95-1.93.3-3.25,2.11-2.95,4.04Z"/>
            <path class="cls-5" d="m246.57,109.82l10.58-1.65c.52-.08.88-.57.8-1.09h0c-.08-.52-.57-.88-1.09-.8l-10.58,1.65c-.52.08-.88.57-.8,1.09h0c.08.52.57.88,1.09.8Z"/>
            <path class="cls-5" d="m246.98,112.43l10.58-1.65c.52-.08.88-.57.8-1.09h0c-.08-.52-.57-.88-1.09-.8l-10.58,1.65c-.52.08-.88.57-.8,1.09h0c.08.52.57.88,1.09.8Z"/>
          </g>
          <g>
            <path class="cls-8" d="m244.5,122.46c.3,1.93,2.11,3.25,4.04,2.95,1.93-.3,3.25-2.11,2.95-4.04-.3-1.93-2.11-3.25-4.04-2.95-1.93.3-3.25,2.11-2.95,4.04Z"/>
            <path class="cls-5" d="m248.37,121.36l10.58-1.65c.52-.08.88-.57.8-1.09h0c-.08-.52-.57-.88-1.09-.8l-10.58,1.65c-.52.08-.88.57-.8,1.09h0c.08.52.57.88,1.09.8Z"/>
            <path class="cls-5" d="m248.77,123.97l10.58-1.65c.52-.08.88-.57.8-1.09h0c-.08-.52-.57-.88-1.09-.8l-10.58,1.65c-.52.08-.88.57-.8,1.09h0c.08.52.57.88,1.09.8Z"/>
          </g>
          <g>
            <path class="cls-8" d="m246.3,134c.3,1.93,2.11,3.25,4.04,2.95,1.93-.3,3.25-2.11,2.95-4.04-.3-1.93-2.11-3.25-4.04-2.95-1.93.3-3.25,2.11-2.95,4.04Z"/>
            <path class="cls-5" d="m250.16,132.9l10.58-1.65c.52-.08.88-.57.8-1.09h0c-.08-.52-.57-.88-1.09-.8l-10.58,1.65c-.52.08-.88.57-.8,1.09h0c.08.52.57.88,1.09.8Z"/>
            <path class="cls-5" d="m250.57,135.51l10.58-1.65c.52-.08.88-.57.8-1.09h0c-.08-.52-.57-.88-1.09-.8l-10.58,1.65c-.52.08-.88.57-.8,1.09h0c.08.52.57.88,1.09.8Z"/>
          </g>
          <g>
            <path class="cls-8" d="m248.09,145.54c.3,1.93,2.11,3.25,4.04,2.95,1.93-.3,3.25-2.11,2.95-4.04-.3-1.93-2.11-3.25-4.04-2.95-1.93.3-3.25,2.11-2.95,4.04Z"/>
            <path class="cls-5" d="m251.96,144.44l10.58-1.65c.52-.08.88-.57.8-1.09h0c-.08-.52-.57-.88-1.09-.8l-10.58,1.65c-.52.08-.88.57-.8,1.09h0c.08.52.57.88,1.09.8Z"/>
            <path class="cls-5" d="m252.36,147.04l10.58-1.65c.52-.08.88-.57.8-1.09h0c-.08-.52-.57-.88-1.09-.8l-10.58,1.65c-.52.08-.88.57-.8,1.09h0c.08.52.57.88,1.09.8Z"/>
          </g>
          <g>
            <path class="cls-8" d="m249.89,157.07c.3,1.93,2.11,3.25,4.04,2.95,1.93-.3,3.25-2.11,2.95-4.04s-2.11-3.25-4.04-2.95c-1.93.3-3.25,2.11-2.95,4.04Z"/>
            <path class="cls-5" d="m253.75,155.97l10.58-1.65c.52-.08.88-.57.8-1.09h0c-.08-.52-.57-.88-1.09-.8l-10.58,1.65c-.52.08-.88.57-.8,1.09h0c.08.52.57.88,1.09.8Z"/>
            <path class="cls-5" d="m254.16,158.58l10.58-1.65c.52-.08.88-.57.8-1.09h0c-.08-.52-.57-.88-1.09-.8l-10.58,1.65c-.52.08-.88.57-.8,1.09h0c.08.52.57.88,1.09.8Z"/>
          </g>
          <g>
            <path class="cls-8" d="m251.68,168.61c.3,1.93,2.11,3.25,4.04,2.95,1.93-.3,3.25-2.11,2.95-4.04-.3-1.93-2.11-3.25-4.04-2.95-1.93.3-3.25,2.11-2.95,4.04Z"/>
            <path class="cls-5" d="m255.55,167.51l10.58-1.65c.52-.08.88-.57.8-1.09h0c-.08-.52-.57-.88-1.09-.8l-10.58,1.65c-.52.08-.88.57-.8,1.09h0c.08.52.57.88,1.09.8Z"/>
            <path class="cls-5" d="m255.95,170.12l10.58-1.65c.52-.08.88-.57.8-1.09h0c-.08-.52-.57-.88-1.09-.8l-10.58,1.65c-.52.08-.88.57-.8,1.09h0c.08.52.57.88,1.09.8Z"/>
          </g>
          <g>
            <path class="cls-8" d="m253.48,180.15c.3,1.93,2.11,3.25,4.04,2.95,1.93-.3,3.25-2.11,2.95-4.04-.3-1.93-2.11-3.25-4.04-2.95-1.93.3-3.25,2.11-2.95,4.04Z"/>
            <path class="cls-5" d="m257.34,179.05l10.58-1.65c.52-.08.88-.57.8-1.09h0c-.08-.52-.57-.88-1.09-.8l-10.58,1.65c-.52.08-.88.57-.8,1.09h0c.08.52.57.88,1.09.8Z"/>
            <path class="cls-5" d="m257.75,181.66l10.58-1.65c.52-.08.88-.57.8-1.09h0c-.08-.52-.57-.88-1.09-.8l-10.58,1.65c-.52.08-.88.57-.8,1.09h0c.08.52.57.88,1.09.8Z"/>
          </g>
          <g>
            <path class="cls-8" d="m255.28,191.69c.3,1.93,2.11,3.25,4.04,2.95,1.93-.3,3.25-2.11,2.95-4.04-.3-1.93-2.11-3.25-4.04-2.95-1.93.3-3.25,2.11-2.95,4.04Z"/>
            <path class="cls-5" d="m259.14,190.59l10.58-1.65c.52-.08.88-.57.8-1.09h0c-.08-.52-.57-.88-1.09-.8l-10.58,1.65c-.52.08-.88.57-.8,1.09h0c.08.52.57.88,1.09.8Z"/>
            <path class="cls-5" d="m259.55,193.2l10.58-1.65c.52-.08.88-.57.8-1.09h0c-.08-.52-.57-.88-1.09-.8l-10.58,1.65c-.52.08-.88.57-.8,1.09h0c.08.52.57.88,1.09.8Z"/>
          </g>
          <g>
            <path class="cls-8" d="m257.07,203.23c.3,1.93,2.11,3.25,4.04,2.95,1.93-.3,3.25-2.11,2.95-4.04-.3-1.93-2.11-3.25-4.04-2.95-1.93.3-3.25,2.11-2.95,4.04Z"/>
            <path class="cls-5" d="m260.94,202.13l10.58-1.65c.52-.08.88-.57.8-1.09h0c-.08-.52-.57-.88-1.09-.8l-10.58,1.65c-.52.08-.88.57-.8,1.09h0c.08.52.57.88,1.09.8Z"/>
            <path class="cls-5" d="m261.34,204.74l10.58-1.65c.52-.08.88-.57.8-1.09h0c-.08-.52-.57-.88-1.09-.8l-10.58,1.65c-.52.08-.88.57-.8,1.09h0c.08.52.57.88,1.09.8Z"/>
          </g>
          <g>
            <path class="cls-8" d="m258.87,214.76c.3,1.93,2.11,3.25,4.04,2.95,1.93-.3,3.25-2.11,2.95-4.04s-2.11-3.25-4.04-2.95c-1.93.3-3.25,2.11-2.95,4.04Z"/>
            <path class="cls-5" d="m262.73,213.67l10.58-1.65c.52-.08.88-.57.8-1.09h0c-.08-.52-.57-.88-1.09-.8l-10.58,1.65c-.52.08-.88.57-.8,1.09h0c.08.52.57.88,1.09.8Z"/>
            <path class="cls-5" d="m263.14,216.27l10.58-1.65c.52-.08.88-.57.8-1.09h0c-.08-.52-.57-.88-1.09-.8l-10.58,1.65c-.52.08-.88.57-.8,1.09h0c.08.52.57.88,1.09.8Z"/>
          </g>
          <g>
            <path class="cls-8" d="m260.66,226.3c.3,1.93,2.11,3.25,4.04,2.95,1.93-.3,3.25-2.11,2.95-4.04s-2.11-3.25-4.04-2.95c-1.93.3-3.25,2.11-2.95,4.04Z"/>
            <path class="cls-5" d="m264.53,225.2l10.58-1.65c.52-.08.88-.57.8-1.09h0c-.08-.52-.57-.88-1.09-.8l-10.58,1.65c-.52.08-.88.57-.8,1.09h0c.08.52.57.88,1.09.8Z"/>
            <path class="cls-5" d="m264.93,227.81l10.58-1.65c.52-.08.88-.57.8-1.09h0c-.08-.52-.57-.88-1.09-.8l-10.58,1.65c-.52.08-.88.57-.8,1.09h0c.08.52.57.88,1.09.8Z"/>
          </g>
          <g>
            <path class="cls-8" d="m262.46,237.84c.3,1.93,2.11,3.25,4.04,2.95,1.93-.3,3.25-2.11,2.95-4.04-.3-1.93-2.11-3.25-4.04-2.95-1.93.3-3.25,2.11-2.95,4.04Z"/>
            <path class="cls-5" d="m266.32,236.74l10.58-1.65c.52-.08.88-.57.8-1.09h0c-.08-.52-.57-.88-1.09-.8l-10.58,1.65c-.52.08-.88.57-.8,1.09h0c.08.52.57.88,1.09.8Z"/>
            <path class="cls-5" d="m266.73,239.35l10.58-1.65c.52-.08.88-.57.8-1.09h0c-.08-.52-.57-.88-1.09-.8l-10.58,1.65c-.52.08-.88.57-.8,1.09h0c.08.52.57.88,1.09.8Z"/>
          </g>
          <g>
            <path class="cls-8" d="m264.25,249.38c.3,1.93,2.11,3.25,4.04,2.95,1.93-.3,3.25-2.11,2.95-4.04-.3-1.93-2.11-3.25-4.04-2.95-1.93.3-3.25,2.11-2.95,4.04Z"/>
            <path class="cls-5" d="m268.12,248.28l10.58-1.65c.52-.08.88-.57.8-1.09h0c-.08-.52-.57-.88-1.09-.8l-10.58,1.65c-.52.08-.88.57-.8,1.09h0c.08.52.57.88,1.09.8Z"/>
            <path class="cls-5" d="m268.52,250.89l10.58-1.65c.52-.08.88-.57.8-1.09h0c-.08-.52-.57-.88-1.09-.8l-10.58,1.65c-.52.08-.88.57-.8,1.09h0c.08.52.57.88,1.09.8Z"/>
          </g>
          <g>
            <path class="cls-8" d="m266.05,260.92c.3,1.93,2.11,3.25,4.04,2.95,1.93-.3,3.25-2.11,2.95-4.04-.3-1.93-2.11-3.25-4.04-2.95-1.93.3-3.25,2.11-2.95,4.04Z"/>
            <path class="cls-5" d="m269.91,259.82l10.58-1.65c.52-.08.88-.57.8-1.09h0c-.08-.52-.57-.88-1.09-.8l-10.58,1.65c-.52.08-.88.57-.8,1.09h0c.08.52.57.88,1.09.8Z"/>
            <path class="cls-5" d="m270.32,262.43l10.58-1.65c.52-.08.88-.57.8-1.09h0c-.08-.52-.57-.88-1.09-.8l-10.58,1.65c-.52.08-.88.57-.8,1.09h0c.08.52.57.88,1.09.8Z"/>
          </g>
          <g>
            <path class="cls-8" d="m267.84,272.46c.3,1.93,2.11,3.25,4.04,2.95,1.93-.3,3.25-2.11,2.95-4.04-.3-1.93-2.11-3.25-4.04-2.95-1.93.3-3.25,2.11-2.95,4.04Z"/>
            <path class="cls-5" d="m271.71,271.36l10.58-1.65c.52-.08.88-.57.8-1.09h0c-.08-.52-.57-.88-1.09-.8l-10.58,1.65c-.52.08-.88.57-.8,1.09h0c.08.52.57.88,1.09.8Z"/>
            <path class="cls-5" d="m272.12,273.96l10.58-1.65c.52-.08.88-.57.8-1.09h0c-.08-.52-.57-.88-1.09-.8l-10.58,1.65c-.52.08-.88.57-.8,1.09h0c.08.52.57.88,1.09.8Z"/>
          </g>
          <g>
            <path class="cls-8" d="m269.64,283.99c.3,1.93,2.11,3.25,4.04,2.95,1.93-.3,3.25-2.11,2.95-4.04s-2.11-3.25-4.04-2.95c-1.93.3-3.25,2.11-2.95,4.04Z"/>
            <path class="cls-5" d="m273.5,282.89l10.58-1.65c.52-.08.88-.57.8-1.09h0c-.08-.52-.57-.88-1.09-.8l-10.58,1.65c-.52.08-.88.57-.8,1.09h0c.08.52.57.88,1.09.8Z"/>
            <path class="cls-5" d="m273.91,285.5l10.58-1.65c.52-.08.88-.57.8-1.09h0c-.08-.52-.57-.88-1.09-.8l-10.58,1.65c-.52.08-.88.57-.8,1.09h0c.08.52.57.88,1.09.8Z"/>
          </g>
          <g>
            <path class="cls-8" d="m271.44,295.53c.3,1.93,2.11,3.25,4.04,2.95,1.93-.3,3.25-2.11,2.95-4.04-.3-1.93-2.11-3.25-4.04-2.95-1.93.3-3.25,2.11-2.95,4.04Z"/>
            <path class="cls-5" d="m275.3,294.43l10.58-1.65c.52-.08.88-.57.8-1.09h0c-.08-.52-.57-.88-1.09-.8l-10.58,1.65c-.52.08-.88.57-.8,1.09h0c.08.52.57.88,1.09.8Z"/>
            <path class="cls-5" d="m275.71,297.04l10.58-1.65c.52-.08.88-.57.8-1.09h0c-.08-.52-.57-.88-1.09-.8l-10.58,1.65c-.52.08-.88.57-.8,1.09h0c.08.52.57.88,1.09.8Z"/>
          </g>
          <g>
            <path class="cls-8" d="m273.23,307.07c.3,1.93,2.11,3.25,4.04,2.95,1.93-.3,3.25-2.11,2.95-4.04-.3-1.93-2.11-3.25-4.04-2.95-1.93.3-3.25,2.11-2.95,4.04Z"/>
            <path class="cls-5" d="m277.1,305.97l10.58-1.65c.52-.08.88-.57.8-1.09h0c-.08-.52-.57-.88-1.09-.8l-10.58,1.65c-.52.08-.88.57-.8,1.09h0c.08.52.57.88,1.09.8Z"/>
            <path class="cls-5" d="m277.5,308.58l10.58-1.65c.52-.08.88-.57.8-1.09h0c-.08-.52-.57-.88-1.09-.8l-10.58,1.65c-.52.08-.88.57-.8,1.09h0c.08.52.57.88,1.09.8Z"/>
          </g>
        </g>
        <g class="cls-22">
          <g>
            <g>
              <g>
                <line class="cls-9" x1="122.03" y1="111.36" x2="124.66" y2="110.96"/>
                <line class="cls-9" x1="127.29" y1="110.55" x2="129.91" y2="110.14"/>
              </g>
              <g>
                <line class="cls-9" x1="96.33" y1="119.07" x2="98.95" y2="118.66"/>
                <line class="cls-9" x1="101.58" y1="118.25" x2="104.21" y2="117.84"/>
                <line class="cls-9" x1="106.83" y1="117.44" x2="109.46" y2="117.03"/>
                <line class="cls-9" x1="112.09" y1="116.62" x2="114.71" y2="116.21"/>
                <line class="cls-9" x1="117.34" y1="115.8" x2="119.97" y2="115.39"/>
                <line class="cls-9" x1="122.6" y1="114.98" x2="125.22" y2="114.57"/>
                <line class="cls-9" x1="127.85" y1="114.17" x2="130.48" y2="113.76"/>
              </g>
              <g>
                <line class="cls-9" x1="96.89" y1="122.69" x2="99.52" y2="122.28"/>
                <line class="cls-9" x1="102.14" y1="121.87" x2="104.77" y2="121.46"/>
                <line class="cls-9" x1="107.4" y1="121.05" x2="110.02" y2="120.65"/>
                <line class="cls-9" x1="112.65" y1="120.24" x2="115.28" y2="119.83"/>
                <line class="cls-9" x1="117.91" y1="119.42" x2="120.53" y2="119.01"/>
                <line class="cls-9" x1="123.16" y1="118.6" x2="125.79" y2="118.19"/>
                <line class="cls-9" x1="128.41" y1="117.78" x2="131.04" y2="117.38"/>
              </g>
              <g>
                <line class="cls-9" x1="97.45" y1="126.31" x2="100.08" y2="125.9"/>
                <line class="cls-9" x1="102.71" y1="125.49" x2="105.33" y2="125.08"/>
                <line class="cls-9" x1="107.96" y1="124.67" x2="110.59" y2="124.26"/>
                <line class="cls-9" x1="113.21" y1="123.86" x2="115.84" y2="123.45"/>
                <line class="cls-9" x1="118.47" y1="123.04" x2="121.1" y2="122.63"/>
                <line class="cls-9" x1="123.72" y1="122.22" x2="126.35" y2="121.81"/>
                <line class="cls-9" x1="128.98" y1="121.4" x2="131.6" y2="120.99"/>
              </g>
              <g>
                <line class="cls-9" x1="98.02" y1="129.93" x2="100.64" y2="129.52"/>
                <line class="cls-9" x1="103.27" y1="129.11" x2="105.9" y2="128.7"/>
                <line class="cls-9" x1="108.52" y1="128.29" x2="111.15" y2="127.88"/>
                <line class="cls-9" x1="113.78" y1="127.47" x2="116.4" y2="127.07"/>
                <line class="cls-9" x1="119.03" y1="126.66" x2="121.66" y2="126.25"/>
                <line class="cls-9" x1="124.29" y1="125.84" x2="126.91" y2="125.43"/>
                <line class="cls-9" x1="129.54" y1="125.02" x2="132.17" y2="124.61"/>
              </g>
            </g>
            <g>
              <line class="cls-9" x1="95.02" y1="110.7" x2="97.65" y2="110.29"/>
              <line class="cls-9" x1="100.28" y1="109.89" x2="102.9" y2="109.48"/>
              <line class="cls-9" x1="105.53" y1="109.07" x2="108.16" y2="108.66"/>
              <line class="cls-9" x1="110.79" y1="108.25" x2="113.41" y2="107.84"/>
              <line class="cls-9" x1="116.04" y1="107.43" x2="118.67" y2="107.02"/>
              <line class="cls-9" x1="121.29" y1="106.61" x2="123.92" y2="106.21"/>
              <line class="cls-9" x1="126.55" y1="105.8" x2="129.17" y2="105.39"/>
            </g>
            <line class="cls-9" x1="129.72" y1="107.39" x2="95.11" y2="112.77"/>
            <line class="cls-9" x1="104.72" y1="104.56" x2="118.07" y2="102.48"/>
          </g>
          <line class="cls-9" x1="88.14" y1="141.88" x2="235.37" y2="118.97"/>
          <line class="cls-9" x1="89.98" y1="153.74" x2="237.21" y2="130.83"/>
          <line class="cls-9" x1="91.83" y1="165.6" x2="239.06" y2="142.68"/>
          <line class="cls-9" x1="93.67" y1="177.45" x2="240.9" y2="154.54"/>
          <line class="cls-9" x1="95.52" y1="189.31" x2="242.75" y2="166.4"/>
          <line class="cls-9" x1="97.36" y1="201.17" x2="244.59" y2="178.25"/>
          <line class="cls-9" x1="99.21" y1="213.02" x2="246.44" y2="190.11"/>
          <line class="cls-9" x1="101.06" y1="224.88" x2="248.28" y2="201.97"/>
          <line class="cls-9" x1="102.9" y1="236.74" x2="250.13" y2="213.83"/>
          <line class="cls-9" x1="104.75" y1="248.6" x2="251.97" y2="225.68"/>
          <line class="cls-9" x1="106.59" y1="260.45" x2="253.82" y2="237.54"/>
          <line class="cls-9" x1="108.44" y1="272.31" x2="255.66" y2="249.4"/>
          <line class="cls-9" x1="110.28" y1="284.17" x2="257.51" y2="261.26"/>
          <line class="cls-9" x1="114.66" y1="312.33" x2="261.89" y2="289.42"/>
          <line class="cls-9" x1="116.12" y1="321.72" x2="263.35" y2="298.8"/>
          <line class="cls-9" x1="117.59" y1="331.1" x2="264.81" y2="308.19"/>
        </g>
      </g>
      <g>
        <path class="cls-10" d="m109.14,153.29s-12.56,13.59-5.3,11.45,17.19-16.34,15.07-10.44c-2.12,5.9-2,9.93,1.42,5.85,3.41-4.07,5.31-4.88,4.63-2.75-.68,2.13,2.13.68,2.13.68,0,0,6.95-4.12,6.27-1.99-.68,2.13-1.17,2.21.8,1.9,1.98-.31,6.42-1,6.42-1,0,0-.42.57,5.51-.35,5.93-.92,8.25-2.3,11.21-2.76"/>
        <path class="cls-10" d="m103.43,171.89s9.68-6.06,10.9-4.73c1.22,1.33-.45,3.61,3.92,2.43,4.37-1.19,8.35-4.84,8.66-2.87.31,1.98,3.12.53,3.12.53l2.47-.38s4.52-.2,5.93-.92c1.41-.72,2.88-7.53,1.79,1.75-1.09,9.28-4.86,1.26,4.14-2.67,9-3.93,10.68.36,10.68.36,0,0,.99-.15,2.89-.96,1.9-.8,3.57-3.09,5.36-1.34,1.79,1.75,4.97-3.81,4.97-3.81,0,0,1.56.26,3.69.94s3.61.45,3.61.45c0,0,2.55.11,4.52-.2,1.98-.31,3.64-2.59,5.28-1.83,1.64.76,4.09-6.2,2.85,2.09-1.24,8.29-9.25,12.07-5.99,7.01,3.26-5.06,7.25-8.72,10.89-11.31s4.71-2.25,5.51-.35c.8,1.9,1.79,1.75,3.69.94s.26-1.56,1.9-.8c1.64.76,2.13.68,3.61.45,1.48-.23-5.47,3.89,1.48-.23s9.43-20.7,5.8-11.53c-3.63,9.17-2.26,11.48,2.6,10.22"/>
        <path class="cls-10" d="m104.49,188.42s11.88-11.46,11.15-12.87c-.72-1.41-4.52.2-7.29,5.18s-.82,7.72,6.62,3.52c7.44-4.19-3.38,1.03,4.26,1.36,7.64.33,9.91-4.58,10.14-3.1.23,1.48-2.32,1.37,3.69.94s3.07-3.01,9.23-2.45c6.16.56,8.89-1.38,8.89-1.38l3.95-.62s-7.98.74,2.39-.88c10.38-1.61,14.95-14.47,9.95-7.62-5.01,6.85-2.65,9.01,2.48,6.19l5.13-2.82s6.49-7.08,3.43,2.5c-3.06,9.58-6.69,2.56,4.71-2.25,11.4-4.81,11.1-.21,14.9-1.81,3.8-1.6,3.18-5.56,5.7-2.4,2.51,3.15,2.36,2.16,6.31,1.55s2.89-.96,6.35-1.49c3.46-.54,3.95-.62,7.41-1.15"/>
        <path class="cls-10" d="m106.49,224.04s8.28-5.34,9.59-13.13-5.2,2.33-4.5,13.35c.7,11.02-3.16-4.06,8.39-7.88,11.55-3.82-1.02,3.19.27,5.02,1.3,1.82,10.75-5.72,10.64-3.17-.11,2.55,2.02,3.23,7.83-1.72,5.81-4.95-3.66-3.99-4.11-.37-.45,3.61,2.36,2.16,9.54-.47,7.18-2.64.15.99,4.6.3,4.45-.69,14.24-9.3,12.31-5.46-1.93,3.84-.07,6.08,2.1,3.72,2.16-2.36,6.75-8.64,7.14-6.17.38,2.47-.89,4.19-.89,4.19"/>
      </g>
    </g>
  </g>
  <g id="Highlighter_Pen" data-name="Highlighter Pen">
    <g>
      <path class="cls-18" d="m60.08,129.95c-.17-.18-.37-.38-.61-.58-.49-.4-1.16-.81-2.07-1.22-.12-.06-.28-.11-.44-.16-.03-.01-.07-.02-.11-.03-3.94-1.21-17.41-1.8-21.94-1.96-2.33-.09-4.45,1.43-5.05,3.69,0,.04-.02.07-.03.11-.92,3.67-14.58,94.21-14.58,94.21,0,0-.1,2.04-.23,5.13-.06,1.37-.13,2.95-.2,4.65-.02.43-.04.86-.05,1.3-.04.88-.07,1.78-.11,2.7-.13,3.21-.25,6.59-.34,9.67-.07,2.2-.12,4.26-.14,5.99-.02,1.39-.03,2.57,0,3.46.05,2.68.11,4.73.35,6.27.4,2.58,1.29,3.77,3.51,4.16.55.1,1.35.22,2.33.34.19.02.4.05.6.07.83.1,1.76.2,2.75.29.25.02.5.05.75.07.76.07,1.55.13,2.36.19.54.04,1.08.07,1.62.1s1.08.06,1.62.08c1.08.05,2.14.07,3.14.07,1.69,0,3.22-.08,4.41-.26,0,0,0,0,0,0,.04,0,.09-.01.13-.02.13-.02.25-.05.37-.07.02,0,.03,0,.05,0,.14-.03.28-.06.41-.09.03,0,.05-.01.08-.02.15-.04.29-.08.41-.13.24-.09.47-.17.69-.26s.43-.17.63-.26c1-.43,1.78-.85,2.41-1.3.25-.18.49-.36.7-.56.21-.19.41-.39.6-.6.09-.1.18-.21.27-.32.35-.43.66-.91.98-1.44,0,0,0-.01,0-.02.04-.06.08-.15.12-.25.02-.04.04-.1.06-.15.03-.08.06-.16.1-.26.02-.07.05-.15.08-.23.03-.1.07-.2.1-.32.03-.09.06-.19.09-.28.04-.13.08-.25.12-.39.03-.1.06-.22.09-.33.04-.15.08-.3.13-.46.03-.13.07-.27.11-.4.04-.16.09-.32.13-.49.04-.14.08-.3.12-.45.05-.18.09-.36.14-.56.04-.15.08-.32.12-.48.05-.2.1-.39.15-.6.04-.18.09-.36.13-.55.05-.21.1-.42.16-.64.05-.19.09-.38.14-.57.05-.22.11-.45.16-.68.05-.2.1-.41.14-.61.05-.23.11-.46.16-.7.05-.22.1-.44.15-.66.06-.24.11-.48.17-.73.02-.07.03-.14.05-.21.03-.14.06-.28.1-.42.06-.27.12-.54.19-.81.05-.21.1-.42.14-.64.06-.28.12-.55.19-.83.05-.22.1-.44.15-.67.06-.27.12-.55.18-.83.05-.24.11-.49.16-.73.06-.26.12-.53.17-.79.06-.25.11-.51.17-.76.06-.26.11-.53.17-.79.03-.12.05-.24.08-.36.03-.14.06-.28.09-.42.06-.26.11-.52.17-.78.06-.26.11-.51.17-.77.06-.27.11-.53.17-.8.06-.26.11-.52.16-.77.05-.25.11-.51.16-.76.06-.28.12-.55.17-.82.05-.24.1-.48.15-.73.05-.25.11-.51.16-.76.06-.26.11-.53.16-.79.05-.25.1-.5.16-.75.05-.23.09-.46.14-.68.03-.17.07-.34.11-.51.02-.1.04-.19.06-.29.05-.22.09-.44.14-.66.05-.25.1-.5.15-.75.04-.22.09-.43.13-.65.05-.26.1-.51.15-.76.04-.18.07-.35.1-.52.04-.19.08-.39.12-.58.01-.07.03-.14.04-.22.03-.17.07-.34.1-.51.05-.24.1-.49.14-.73.03-.17.07-.34.1-.5.04-.23.09-.46.13-.67.03-.15.06-.29.08-.43.04-.23.09-.45.13-.67.02-.12.04-.23.06-.34.04-.22.08-.44.12-.64.02-.11.04-.22.06-.33.04-.19.07-.39.1-.57,0-.01,0-.03,0-.04,0,0,0,0,0,0,.04-.24.08-.48.12-.69.17-1,.41-3.2.69-6.3.11-1.16.22-2.44.33-3.84.43-5.11.93-11.67,1.46-18.86.05-.65.1-1.31.14-1.98,1.97-27.21,4.22-62.15,4.22-62.15,0,0,.08-.71-.74-1.63Z"/>
      <g>
        <path class="cls-20" d="m10.58,223s-1.23,25.77-1.1,32.91c.14,7.14.31,9.81,3.85,10.44s17.2,2.01,21.03.62c3.83-1.39,5-2.6,6.27-4.72,1.27-2.12,7.3-30.56,8.67-38.55s6.84-93.12,6.84-93.12c0,0,.21-1.81-3.43-3.42-3.04-1.35-17.72-1.99-22.48-2.16-2.33-.09-4.45,1.43-5.05,3.69,0,.04-.02.07-.03.11-.92,3.67-14.58,94.21-14.58,94.21Z"/>
        <g class="cls-25">
          <path class="cls-19" d="m32.32,267.38c.83-.09,1.53-.23,2.05-.42,3.83-1.39,5-2.6,6.27-4.72,1.27-2.12,7.3-30.56,8.67-38.55s6.84-93.12,6.84-93.12c0,0,.21-1.81-3.43-3.42-.27-.12-.65-.24-1.09-.35-.79,19.75-3.46,43.2-8.15,71.06-4.43,26.37-9.41,58.22-11.16,69.52Z"/>
        </g>
        <path class="cls-14" d="m10.58,223s-1.23,25.77-1.1,32.91c.14,7.14.31,9.81,3.85,10.44s17.2,2.01,21.03.62c3.83-1.39,5-2.6,6.27-4.72,1.27-2.12,7.3-30.56,8.67-38.55s6.84-93.12,6.84-93.12c0,0,.21-1.81-3.43-3.42-3.04-1.35-17.72-1.99-22.48-2.16-2.33-.09-4.45,1.43-5.05,3.69,0,.04-.02.07-.03.11-.92,3.67-14.58,94.21-14.58,94.21Z"/>
      </g>
      <g>
        <path class="cls-6" d="m38.52,225.99c-4.27.04-22.66-1.95-25.5-2.55-.95-.2-1.75-.43-2.4-.64-.02.12-.03.19-.03.19,0,0-1.23,25.77-1.1,32.91.14,7.14.31,9.81,3.85,10.44s17.2,2.01,21.03.62c3.83-1.39,5-2.6,6.27-4.72,1.24-2.06,6.98-29.04,8.54-37.86-3.61,1.87-7.16,1.57-10.67,1.61Z"/>
        <g class="cls-23">
          <path class="cls-19" d="m32.32,267.38c.83-.09,1.53-.23,2.05-.42,3.83-1.39,5-2.6,6.27-4.72,1.27-2.12,7.3-30.56,8.67-38.55s6.84-93.12,6.84-93.12c0,0,.21-1.81-3.43-3.42-.27-.12-.65-.24-1.09-.35-.79,19.75-3.46,43.2-8.15,71.06-4.43,26.37-9.41,58.22-11.16,69.52Z"/>
          <path class="cls-15" d="m38.56,228.37c4-.14,6.75-.92,8.31-1.28"/>
          <path class="cls-12" d="m12.03,225.42s22.58,3.09,26.53,2.95"/>
        </g>
        <path class="cls-14" d="m38.52,225.99c-4.27.04-22.66-1.95-25.5-2.55-.95-.2-1.75-.43-2.4-.64-.02.12-.03.19-.03.19,0,0-1.23,25.77-1.1,32.91.14,7.14.31,9.81,3.85,10.44s17.2,2.01,21.03.62c3.83-1.39,5-2.6,6.27-4.72,1.24-2.06,6.98-29.04,8.54-37.86-3.61,1.87-7.16,1.57-10.67,1.61Z"/>
      </g>
    </g>
  </g>
  <g id="Plant">
    <g>
      <circle class="cls-7" cx="312.81" cy="82.32" r="42.91" transform="translate(-2.66 153.79) rotate(-27.51)"/>
      <circle class="cls-2" cx="309.61" cy="78.05" r="42.91" transform="translate(193.93 375.66) rotate(-82.91)"/>
      <circle class="cls-7" cx="309.61" cy="78.05" r="38.65" transform="translate(182.39 370.91) rotate(-80.67)"/>
      <g>
        <path class="cls-17" d="m305.08,49s-4.26-10.66-11.73-18.12c-7.46-7.46-37.85-12.26-37.85-12.26,0,0,6.4,5.86,13.33,15.46,6.93,9.6,29.85,31.45,29.85,31.45,0,0-11.19-9.6-21.32-10.66-10.13-1.07-35.72,4.26-37.31,4.26s9.6,4.26,17.59,8c8,3.73,38.91,6.93,38.91,6.93,0,0-13.33,3.73-22.39,6.93-9.06,3.2-17.59,26.65-17.59,26.65,0,0,11.73-10.66,21.86-13.33,10.13-2.67,24.52-7.46,24.52-7.46,0,0-9.06,10.13-11.19,17.06-2.13,6.93-.53,22.92-.53,22.92,0,0,4.8-14.93,10.66-20.79s12.26-15.99,12.26-15.99c0,0,3.73,5.86,8,14.93,4.26,9.06,6.93,22.39,6.93,22.39,0,0,6.93-14.93,6.4-22.39s-8.53-20.79-8.53-20.79c0,0,5.33-3.73,13.33-.53,8,3.2,21.86,16.53,21.86,16.53,0,0-3.2-17.59-8.53-24.52-5.33-6.93-28.25-9.06-28.25-9.06,0,0,12.79-7.46,20.79-9.06,8-1.6,18.66,2.13,18.66,2.13,0,0-12.26-17.06-21.86-18.12-9.6-1.07-23.99,13.86-23.99,13.86,0,0,3.2-15.99,4.26-21.32,1.07-5.33-1.07-18.66-1.07-18.66,0,0-5.86,3.2-12.79,13.33-6.93,10.13-4.26,20.26-4.26,20.26Z"/>
        <path class="cls-19" d="m305.08,49s-4.26-10.66-11.73-18.12c-7.46-7.46-37.85-12.26-37.85-12.26,0,0,6.4,5.86,13.33,15.46,6.93,9.6,29.85,31.45,29.85,31.45,0,0-11.19-9.6-21.32-10.66-10.13-1.07-35.72,4.26-37.31,4.26s9.6,4.26,17.59,8c8,3.73,38.91,6.93,38.91,6.93,0,0-13.33,3.73-22.39,6.93-9.06,3.2-17.59,26.65-17.59,26.65,0,0,11.73-10.66,21.86-13.33,10.13-2.67,24.52-7.46,24.52-7.46,0,0-9.06,10.13-11.19,17.06-2.13,6.93-.53,22.92-.53,22.92,0,0,4.8-14.93,10.66-20.79s12.26-15.99,12.26-15.99c0,0,3.73,5.86,8,14.93,4.26,9.06,6.93,22.39,6.93,22.39,0,0,6.93-14.93,6.4-22.39s-8.53-20.79-8.53-20.79c0,0,5.33-3.73,13.33-.53,8,3.2,21.86,16.53,21.86,16.53,0,0-3.2-17.59-8.53-24.52-5.33-6.93-28.25-9.06-28.25-9.06,0,0,12.79-7.46,20.79-9.06,8-1.6,18.66,2.13,18.66,2.13,0,0-12.26-17.06-21.86-18.12-9.6-1.07-23.99,13.86-23.99,13.86,0,0,3.2-15.99,4.26-21.32,1.07-5.33-1.07-18.66-1.07-18.66,0,0-5.86,3.2-12.79,13.33-6.93,10.13-4.26,20.26-4.26,20.26Z"/>
        <path class="cls-16" d="m315.58,32.78c.37-1.53.78-3.06,1.23-4.56"/>
        <path class="cls-16" d="m279.98,32.77c4.99,3.64,11.23,8.66,14.44,13.03,5.86,8,17.59,25.05,17.59,25.05,0,0-.79-16.91,2.71-34.17"/>
        <path class="cls-16" d="m272.56,27.68s1.56.99,3.88,2.59"/>
        <path class="cls-16" d="m312.01,70.86s20.26-20.26,28.79-21.86c8.53-1.6,15.99,4.8,15.99,4.8"/>
        <path class="cls-16" d="m275.8,87.8c-4.93,3.14-5.37,4.92-5.37,4.92"/>
        <path class="cls-16" d="m356.25,89.52s-3.2-8-14.39-11.73c-11.19-3.73-28.79-4.26-28.79-4.26,0,0-24.67,8.07-33.69,12.29"/>
        <path class="cls-16" d="m302.31,70.48c5.96,1.73,10.76,3.04,10.76,3.04"/>
        <path class="cls-16" d="m264.76,61.01c5.8.35,13.25,1.14,17.4,2.92,3.38,1.45,10.05,3.56,16.33,5.43"/>
        <path class="cls-16" d="m256.57,60.73s1.95,0,4.83.11"/>
        <path class="cls-16" d="m312.01,76.72s-14.93,22.39-15.99,27.72c-1.07,5.33-1.07,9.6-1.07,9.6"/>
        <path class="cls-16" d="m318.65,83.77c2.87,3.71,6.32,8.66,7.76,12.68,2.67,7.46,3.73,14.93,3.73,14.93"/>
        <path class="cls-16" d="m314.14,78.32s1.18,1.32,2.84,3.35"/>
      </g>
      <g>
        <path class="cls-17" d="m298.31,53.6s-2.75-11.15-1.05-21.56c1.71-10.41,23.59-32.03,23.59-32.03,0,0-1.78,8.49-1.81,20.33-.03,11.84-5.9,42.96-5.9,42.96,0,0,3.5-14.32,11.1-21.1,7.6-6.77,31.5-17.37,32.8-18.3,1.3-.93-5.31,9.06-9.63,16.76-4.32,7.69-27.57,28.33-27.57,28.33,0,0,13-4.74,22.23-7.43,9.23-2.69,29.83,11.39,29.83,11.39,0,0-15.74-1.82-25.53,1.92-9.78,3.74-24.27,8.24-24.27,8.24,0,0,13.27,2.94,19.04,7.33,5.77,4.39,13.8,18.31,13.8,18.31,0,0-12.6-9.33-20.79-10.67-8.18-1.34-19.29-5.84-19.29-5.84,0,0,.39,6.94,2.21,16.79,1.82,9.85,7.43,22.23,7.43,22.23,0,0-14.33-8.08-18.25-14.45-3.92-6.37-5.2-21.86-5.2-21.86,0,0-6.51.08-11.14,7.34-4.63,7.26-8.11,26.17-8.11,26.17,0,0-7.66-16.15-7.37-24.89.29-8.74,17.66-23.84,17.66-23.84,0,0-14.74,1.4-22.17,4.77-7.43,3.36-13.91,12.61-13.91,12.61,0,0,0-21.01,7.18-27.47,7.17-6.46,27.57-2.73,27.57-2.73,0,0-11.93-11.12-15.9-14.83-3.98-3.71-10.02-15.78-10.02-15.78,0,0,6.63-.82,18.16,3.36,11.54,4.18,15.28,13.97,15.28,13.97Z"/>
        <path class="cls-16" d="m280.31,46.54c-1.19-1.03-2.42-2.03-3.66-2.99"/>
        <path class="cls-16" d="m309.23,25.77c-1.93,5.87-4.08,13.58-4.13,19.01-.1,9.92.32,30.61.32,30.61,0,0-9.22-14.19-22.13-26.18"/>
        <path class="cls-16" d="m312.28,17.31s-.69,1.71-1.64,4.37"/>
        <path class="cls-16" d="m305.43,75.39s-28.27-4.64-36.13-.96c-7.86,3.68-10.19,13.22-10.19,13.22"/>
        <path class="cls-16" d="m344.72,68.03c5.84-.32,7.23.86,7.23.86"/>
        <path class="cls-16" d="m280.37,116.35s-2.07-8.36,4.85-17.92c6.92-9.56,20.89-20.25,20.89-20.25,0,0,24.74-7.83,34.53-9.67"/>
        <path class="cls-16" d="m313.08,69.43c-3.83,4.88-6.97,8.75-6.97,8.75"/>
        <path class="cls-16" d="m338.06,39.83c-4.5,3.66-10.1,8.65-12.43,12.52-1.9,3.15-6.09,8.75-10.1,13.93"/>
        <path class="cls-16" d="m344.55,34.83s-1.58,1.14-3.85,2.91"/>
        <path class="cls-16" d="m308.85,80.15s25.18,9.48,29.16,13.19c3.98,3.71,6.46,7.17,6.46,7.17"/>
        <path class="cls-16" d="m307.57,89.75c-.17,4.69-.08,10.72,1.09,14.82,2.19,7.62,5.67,14.3,5.67,14.3"/>
        <path class="cls-16" d="m308.05,82.7s-.19,1.76-.35,4.37"/>
      </g>
    </g>
  </g>
  <g id="Hand">
    <g>
      <path class="cls-18" d="m318.16,299.18c-1.92-5.41-2.26-33.79-1.83-53.97l11.23,2.43c2.04.44,4.05.09,5.73-.84.42-.24.82-.51,1.2-.82.36-.29.7-.62,1-.97,1.01-1.15,1.72-2.58,1.96-4.21.04-.28.07-.56.08-.84.04-.83-.05-1.65-.25-2.43-.2-.78-.51-1.52-.92-2.19-.27-.45-.59-.88-.94-1.27-1.24-1.37-2.94-2.34-4.91-2.63l-13.56-2.02c.13-1.77.26-3.13.41-3.97.25-1.45.34-2.76.29-3.96.2-.65.5-1.61.94-3.03,1.36-4.39.33-10.84-3.41-14.51s-16.97-10.13-20.88-13.52c-3.91-3.39-32.93-24.09-38.14-22.86-5.21,1.22-11.37,8.65-16.62,12.75-5.26,4.1-24.12,19.54-24.12,19.54.06-.66-9.72,3.3-12.1,7.13-.4.49-.6.94-.51,1.33.39,1.67,1.57,3.6,4.34,4.78l-8.48-1.26c-1.01-.15-1.97.32-2.51,1.12-3.01-.45-9.12-1.12-13.54.09,0,0,7.21,3.53,12.61,4.7.28.82.96,1.48,1.88,1.68l11.25,2.43c-.19.61-.35,1.26-.46,2-.09.6.02,1.21.25,1.82.05.38.12.78.21,1.18,1.6,6.8,10.23,15.06,16.54,20.52,6.31,5.46,12.33,14.81,16.07,25.65,3.74,10.84,6.08,20.82,14.4,31.79,1.49,1.96,3.04,3.71,4.61,5.27l77.57,48.97s-16.57-51.94-19.39-59.89Zm-101.17-85.27c-.13.2-.26.4-.37.6l-2.14-.32c.79-.03,1.64-.13,2.51-.29Z"/>
      <g>
        <g>
          <g>
            <path class="cls-1" d="m292.11,385.76l-49.52-85.6s-5.54-38.89-17.35-54.54c-11.81-15.65-28.37-27.07-18.76-35.07,9.61-8,34-23.29,39.02-22.32s38.66,17.96,48.17,20.75c9.51,2.79,12.84,6.79,11.42,15.02-1.42,8.23-2.02,65.78.8,73.73,2.82,7.95,34.06,64.59,34.06,64.59"/>
            <g class="cls-21">
              <path class="cls-17" d="m305.89,297.73c-2.82-7.95-2.22-65.51-.8-73.73.87-5.04-.06-8.49-3.08-11.05.23,4.51-.79,9.43-2.19,13.39-2.67,7.57-4.01,12.91-4.01,12.91,0,0-.45,27.15,1.34,40.95,1.78,13.8,10.68,38.28,19.14,51.64,6.26,9.88,15.19,18.78,19.42,22.75-8.64-15.78-27.64-50.74-29.81-56.85Z"/>
              <path class="cls-3" d="m305.89,297.73c-2.82-7.95-2.22-65.51-.8-73.73.87-5.04-.06-8.49-3.08-11.05.23,4.51-.79,9.43-2.19,13.39-2.67,7.57-4.01,12.91-4.01,12.91,0,0-.45,27.15,1.34,40.95,1.78,13.8,10.68,38.28,19.14,51.64,6.26,9.88,15.19,18.78,19.42,22.75-8.64-15.78-27.64-50.74-29.81-56.85Z"/>
            </g>
            <path class="cls-10" d="m292.11,385.76l-49.52-85.6s-5.54-38.89-17.35-54.54c-11.81-15.65-28.37-27.07-18.76-35.07,9.61-8,34-23.29,39.02-22.32s38.66,17.96,48.17,20.75c9.51,2.79,12.84,6.79,11.42,15.02-1.42,8.23-2.02,65.78.8,73.73,2.82,7.95,34.06,64.59,34.06,64.59"/>
          </g>
          <path class="cls-17" d="m193.42,212.09s10.68,0,21.81-7.12,7.57-8.46,7.57-8.46c0,0,5.79-1.78,9.35-3.12,3.56-1.34,8.46-4.9,8.46-4.9,0,0,14.24,9.35,20.92,12.02,6.68,2.67,9.83,3.36,9.83,3.36l9.31,12.22s-7.57,3.12-12.91,11.13c-5.34,8.01-12.02,18.7-15.14,20.03s-1.78,2.67-15.58-2.67c-13.8-5.34-44.52-24.48-43.63-32.5Z"/>
          <path class="cls-3" d="m193.42,212.09s10.68,0,21.81-7.12,7.57-8.46,7.57-8.46c0,0,5.79-1.78,9.35-3.12,3.56-1.34,8.46-4.9,8.46-4.9,0,0,14.24,9.35,20.92,12.02,6.68,2.67,9.83,3.36,9.83,3.36l9.31,12.22s-7.57,3.12-12.91,11.13c-5.34,8.01-12.02,18.7-15.14,20.03s-1.78,2.67-15.58-2.67c-13.8-5.34-44.52-24.48-43.63-32.5Z"/>
          <path class="cls-10" d="m218.09,216.2s10.7-1.32,18.24-15.05c0,0,8.88,3.76,18.12,1.35"/>
          <path class="cls-10" d="m247.1,206.28s-5.17,13.65,5.72,31.73"/>
          <path class="cls-10" d="m235.67,207.52s5.38,6.63,6.26,12.41"/>
          <path class="cls-10" d="m245.76,244.39s8.95-5.69,13.78-11.61,6.95-12.16,14.5-14.65"/>
          <line class="cls-10" x1="236.33" y1="201.15" x2="234.14" y2="198.56"/>
        </g>
        <g>
          <path class="cls-8" d="m185.73,211.83s-9.29-1.89-15.36-.22c0,0,8.92,4.37,14.33,5.01l1.03-4.79Z"/>
          <path class="cls-13" d="m318.25,229.99l-131.84-19.59c-1.3-.19-2.54.63-2.86,1.91l-.64,2.56c-.35,1.4.53,2.82,1.94,3.13l130.45,28.2c4.66,1.01,9.19-2.13,9.89-6.84h0c.67-4.5-2.44-8.69-6.94-9.36Z"/>
          <path class="cls-8" d="m318.25,229.99l-19.93-2.96c-3.61,2.11-5.57,6.51-4.53,10.94.35,1.51,1.03,2.86,1.92,4l19.59,4.24c4.66,1.01,9.19-2.13,9.89-6.84h0c.67-4.5-2.44-8.69-6.94-9.36Z"/>
        </g>
        <g>
          <g>
            <path class="cls-1" d="m264.89,242.29s-11.34,2.66-16.4,1.46c-5.07-1.2-15.42-15.76-22.53-20.55-7.11-4.79-11.44-5.93-18.88-7.05-7.44-1.12-12.58,2.47-10.98,9.28,1.6,6.8,10.23,15.06,16.54,20.52,6.31,5.46,12.33,14.81,16.07,25.65,3.74,10.84,6.08,20.82,14.4,31.79,8.32,10.97,18.7,15.47,22.2,16.08"/>
            <g class="cls-26">
              <path class="cls-17" d="m259.26,243.9s-.29-.14-.8-.41c-3.44.51-7.47.85-9.98.26-5.07-1.2-15.42-15.76-22.53-20.55-7.11-4.79-11.44-5.93-18.88-7.05-1.27-.19-2.47-.24-3.59-.16,2.24.55,9.41,2.56,15.98,7.31,7.92,5.72,13.63,20.23,22.43,22.87,8.8,2.64,17.36-2.27,17.36-2.27Z"/>
              <path class="cls-3" d="m259.26,243.9s-.29-.14-.8-.41c-3.44.51-7.47.85-9.98.26-5.07-1.2-15.42-15.76-22.53-20.55-7.11-4.79-11.44-5.93-18.88-7.05-1.27-.19-2.47-.24-3.59-.16,2.24.55,9.41,2.56,15.98,7.31,7.92,5.72,13.63,20.23,22.43,22.87,8.8,2.64,17.36-2.27,17.36-2.27Z"/>
            </g>
            <path class="cls-10" d="m264.89,242.29s-11.34,2.66-16.4,1.46c-5.07-1.2-15.42-15.76-22.53-20.55-7.11-4.79-11.44-5.93-18.88-7.05-7.44-1.12-12.58,2.47-10.98,9.28,1.6,6.8,10.23,15.06,16.54,20.52,6.31,5.46,12.33,14.81,16.07,25.65,3.74,10.84,6.08,20.82,14.4,31.79,8.32,10.97,18.7,15.47,22.2,16.08"/>
          </g>
          <path class="cls-5" d="m201.79,230.31s.54-5.87,8.58-11.34c0,0-5.37-3.52-9.05-2.9s-5.12,2.64-5.68,6.36c-.56,3.72,6.16,7.88,6.16,7.88Z"/>
          <path class="cls-10" d="m207.07,236.54c.49.5,1.15,1.05,2.06,1.61"/>
          <path class="cls-10" d="m212.91,222.67s-8.54,4.4-7.17,11.25"/>
        </g>
        <g>
          <g>
            <path class="cls-1" d="m304.96,221.4l1.36-4.39c1.36-4.39.33-10.84-3.41-14.51-3.73-3.67-16.97-10.13-20.88-13.52-3.91-3.39-32.93-24.09-38.14-22.86s-11.37,8.65-16.62,12.75c-5.26,4.1-24.12,19.54-24.12,19.54,0,0-13.25,5.74-12.61,8.46.64,2.72,3.36,6.15,11.67,5.87,8.31-.28,22.15-8.55,24.26-9.76,2.11-1.21,15.17-9.78,15.17-9.78,0,0,5.34,5.44,11.52,8.3,6.17,2.86,6.96,3.15,6.96,3.15,0,0,1.61,5.84,6.14,8.84"/>
            <g class="cls-24">
              <path class="cls-17" d="m297.59,202.74c4.8,3.77,5.1,11.23,3.77,17.92l3.59.73,1.36-4.39c1.36-4.39.33-10.84-3.41-14.51-3.73-3.67-16.97-10.13-20.88-13.52-1.02-.88-3.76-2.95-7.33-5.5l-.71.12s17.36,14.24,23.59,19.14Z"/>
              <path class="cls-3" d="m297.59,202.74c4.8,3.77,5.1,11.23,3.77,17.92l3.59.73,1.36-4.39c1.36-4.39.33-10.84-3.41-14.51-3.73-3.67-16.97-10.13-20.88-13.52-1.02-.88-3.76-2.95-7.33-5.5l-.71.12s17.36,14.24,23.59,19.14Z"/>
              <path class="cls-17" d="m193.42,212.09s10.68,0,21.81-7.12,7.57-8.46,7.57-8.46c0,0,5.79-1.78,9.35-3.12,3.56-1.34,8.46-4.9,8.46-4.9,0,0,14.24,9.35,20.92,12.02,6.68,2.67,9.83,3.36,9.83,3.36l9.31,12.22s-7.57,3.12-12.91,11.13c-5.34,8.01-12.02,18.7-15.14,20.03s-1.78,2.67-15.58-2.67c-13.8-5.34-44.52-24.48-43.63-32.5Z"/>
              <path class="cls-3" d="m193.42,212.09s10.68,0,21.81-7.12,7.57-8.46,7.57-8.46c0,0,5.79-1.78,9.35-3.12,3.56-1.34,8.46-4.9,8.46-4.9,0,0,14.24,9.35,20.92,12.02,6.68,2.67,9.83,3.36,9.83,3.36l9.31,12.22s-7.57,3.12-12.91,11.13c-5.34,8.01-12.02,18.7-15.14,20.03s-1.78,2.67-15.58-2.67c-13.8-5.34-44.52-24.48-43.63-32.5Z"/>
            </g>
            <path class="cls-10" d="m304.96,221.4l1.36-4.39c1.36-4.39.33-10.84-3.41-14.51-3.73-3.67-16.97-10.13-20.88-13.52-3.91-3.39-32.93-24.09-38.14-22.86s-11.37,8.65-16.62,12.75c-5.26,4.1-24.12,19.54-24.12,19.54,0,0-13.25,5.74-12.61,8.46.64,2.72,3.36,6.15,11.67,5.87,8.31-.28,22.15-8.55,24.26-9.76,2.11-1.21,15.17-9.78,15.17-9.78,0,0,5.34,5.44,11.52,8.3,6.17,2.86,6.96,3.15,6.96,3.15,0,0,1.61,5.84,6.14,8.84"/>
          </g>
          <path class="cls-5" d="m190.54,206.87s1.35.64,4.19-.5c2.84-1.15,8.35-7.22,8.42-7.96.07-.73-12.15,4.29-12.61,8.46Z"/>
          <g>
            <path class="cls-10" d="m241.11,183.5c.12-.58.28-1.17.47-1.77"/>
            <path class="cls-10" d="m241.64,193.2s-1.18-3.24-.85-7.44"/>
          </g>
        </g>
      </g>
    </g>
  </g>
</svg>